<?xml version="1.0" encoding="UTF-8"?>
<svg enable-background="new 0 0 499.4 542.3" version="1.1" viewBox="0 0 499.4 542.3" xml:space="preserve" xmlns="http://www.w3.org/2000/svg" xmlns:xlink="http://www.w3.org/1999/xlink">
<style type="text/css">
	.st0{fill:#7BCBBD;stroke:#2090AC;stroke-width:4;stroke-miterlimit:10;}
	.st1{opacity:0.5;}
	.st2{fill:#2090AC;}
	.st3{fill:none;stroke:#2090AC;stroke-miterlimit:10;}
	.st4{fill:#F3E6CE;stroke:#F4DAAB;stroke-miterlimit:10;}
	.st5{fill:#F3E6CE;stroke:#F4DAAB;stroke-width:0.9858;stroke-miterlimit:10;}
	.st6{fill:#F3E6CE;stroke:#F4DAAB;stroke-width:1.0072;stroke-miterlimit:10;}
	.st7{fill:url(#b);}
	.st8{fill:none;stroke:#4C3D1F;stroke-miterlimit:10;}
	.st9{fill:none;stroke:#4C3D1F;stroke-width:0.9858;stroke-miterlimit:10;}
	.st10{fill:none;stroke:#4C3D1F;stroke-width:1.0072;stroke-miterlimit:10;}
	.st11{fill:url(#a);}
	.st12{fill:#7BCBBD;}
	.st13{fill:none;stroke:#000000;stroke-miterlimit:10;}
	.st14{fill:none;stroke:#000000;stroke-width:0.9994;stroke-miterlimit:10;}
	.st15{fill:none;stroke:#000000;stroke-width:1.1511;stroke-miterlimit:10;}
	.st16{fill:#FFFAEC;}
	.st17{fill:none;stroke:#000000;stroke-width:0.25;stroke-miterlimit:10;}
	.st18{opacity:0.35;fill:#E8DEC8;}
	.st19{opacity:0.52;fill:#FFFEFF;}
</style>


	<path class="st0" d="m252.5 49.7s-54.1 0.8-94.1 18.7c-0.1 0-0.1 0.1-0.2 0.1-22.1 11.4-24.1 14.8-70.1 47.2-16.6 11.7-59.3 36.7-56.6 57.5 0 0.3 0.1 0.6 0.2 0.9 2.7 6.4 10.7 11.6 11.7 13.4 6.6 11-8.5 21.6-22.7 58.3 0 0.1-0.1 0.3-0.1 0.4-1 3.7-1.9 8.3 0.1 12.8 3.2 7.4 9.4 9.2 14.8 12.8 1.9 1.3 3.1 3.4 3.2 5.7 0.7 13-7 43.2 0.1 50.6 8.1 9.4 20.3-0.1 27.5 7.4 2.1 1.7 3.4 13.3 3.1 25.5-0.1 3.4-0.8 6.8-2.2 9.9-3.2 7.5-3.8 12.8-2.2 16.2 4.7 10 11.9 7.6 20 11.3 3.6 1.7 5.9 5.3 6.2 9.2 0.8 13.6 3.1 24.9 12.6 32.2 0.3 0.2 0.6 0.4 0.9 0.5 1.8 0.6 3.4 0.3 3.7 1.3 0.5 0.8-0.2 4.1 0.7 6.3 0 0 0.3 0.7 0.7 1.3 2.3 3.5 9.2 1.4 14.1 2.7 0.2 0.1 0.5 0.1 0.7 0.3 5.7 3.3 8.9 28.9 20 35.2l0.6 0.3c7.2 2.5 15.8-6.9 24.9-2.5 4 1.9 14.8 23 25.6 23 14.4 0 9.5-8.6 21.5-8.9 9.1-0.2 17 5.2 21.7 9 10.4 8.5 11.2 16.3 16 16 12 2.3 20.3 0.6 24.6-4.4 0.4-0.4 7.4-20.6 12.8-21.5 1.6-0.3 2.4 0.1 13.3 5.4 10.2 5.1 9.1 5.2 10.6 5.1 11-0.1 16.9-34.1 28.6-34.4 7.5-0.2 10.4 14 18.4 13.3 7.3-0.7 12.2-13.4 13.6-17 4.8-12.4 2.1-20.9 6.5-22.8 4.3-1.8 8.6 5.8 13.6 5.1 5.3-0.7 8.7-9.2 12.1-41.9 0.2-1.9 1.9-3.3 3.8-3.1 3.5 0.3 6.8-0.9 7.9-1.3 6.7-2.2 11.3-12.5 10.1-25.9-0.2-2.3 1.9-4.3 4.2-3.7h0.1c6.6 1.5 8 6.7 11.9 7.1 4.6 0.5 8.9-6.3 11.6-10.6 2.8-4.5 7.6-12.1 8.5-23.8 1-13.4-4.2-17.3-5.8-35.7-0.4-4.7-0.4-8.9-0.3-12.4 0.1-2.3 2.3-3.9 4.6-3.2 3.6 1.1 7.6 0.9 11.1-0.8 6.6-3.2 8.2-11.1 8.5-12.9 3.1-15.7-12.5-23-12.3-44.6 0.1-5.7 1.2-5.4 1-11.2-0.2-9.1-3.1-16.9-6.6-23.2-1.4-2.6 0.9-5.7 3.8-5 4.8 1.1 10.2 1.5 12.3-1.3 1.3-1.8 0.8-4.4 0.3-6.1-4.3-17-12.6-27.2-12.6-27.2-3.4-4.1-7.2-8.4-36.4-34.4-4.2-3.7-7.2-6.4-11.6-10.6-9.3-8.9-13.7-14-18.4-18.7-9.4-9.5-17.9-15-27.2-21.1-34.3-22.4-68.9-27.2-79-28.9-18-3.3-31.1-3-46-2.9z"/>
	<path class="st0" d="m239 508.3c8.8 7.2 8.3 11.2 12.9 14.3 1.6 1.1 3.4 1.7 5.3 2 10.9 1.7 18.4 0 22.5-4.8"/>
	<g class="st1">
		
			<image transform="matrix(.24 0 0 .24 166.48 63.4)" width="1625" height="2210" overflow="visible" xlink:href="67B82835.png">
		</image>
	</g>


	
		<path class="st2" d="m74 231.4c-2 3.8-4.9 7.2-8.8 9.5-1.9 1.2-4 2-6.2 2.5s-4.4 0.6-6.7 0.4c-2.2-0.1-4.5-0.6-6.7-1.6-1.1-0.5-2.2-1.3-3.1-2.4l-0.6-0.9c-0.2-0.3-0.3-0.7-0.4-1.1-0.2-0.8-0.2-1.5-0.1-2.2 0.2-1.4 0.8-2.5 1.4-3.5s1.3-1.8 1.8-2.7c1.2-1.7 2.2-3.4 3.1-5.2s1.5-3.6 2.1-5.6 1.2-4.1 2-6.1c1.5-4 3.4-7.8 5.5-11.6 4.1-7.4 8.9-14.4 14.2-21l0.8 0.6c-4.7 7-8.9 14.1-12.7 21.6-1.9 3.7-3.6 7.5-4.9 11.4-0.7 1.9-1.2 3.9-1.8 5.9s-1.2 4.2-2.2 6.2-2.1 3.9-3.3 5.7c-0.6 0.9-1.2 1.7-1.7 2.5s-0.9 1.6-1 2.3 0 1.1 0.4 1.7c0.4 0.5 1.1 1 1.8 1.4 1.6 0.8 3.5 1.2 5.5 1.4 1.9 0.2 3.9 0.2 5.9-0.1 1.9-0.3 3.8-0.9 5.6-1.7 3.5-1.8 6.6-4.6 9.1-7.8l1 0.4z"/>
	
	<path class="st3" d="m75.8 281"/>
	
		<path class="st2" d="m82.3 281.1c-0.3 3.1-0.7 6.2-1 9.3-0.4 3.1-0.8 6.2-1.1 9.2l-0.9 9.3-1 9.2v-0.2l-0.1 1.8-0.1 1.6c0 1.1-0.1 2.2-0.1 3.3v6.6c0.1 2.2 0.1 4.4 0.3 6.5s0.5 4.2 1.1 6c0.3 0.9 0.7 1.6 1.1 2 0.2 0.2 0.3 0.3 0.9 0.6l0.8 0.5c0.2 0.1 0.3 0.2 0.5 0.3 1.4 0.8 3.3 1.1 5.3 0.9 1.9-0.1 4-0.6 5.9-1.3s3.9-1.6 5.7-2.6c3.7-2 6.9-4.9 10-8 3.1-3 6.3-6.3 9.3-9.4 3-3.2 5.9-6.5 8.4-10.1s4.7-7.4 6.6-11.5c0.1-0.2 0.4-0.3 0.6-0.2s0.3 0.3 0.2 0.5c-1.4 4.3-3.2 8.4-5.5 12.3-2.3 4-5 7.6-7.9 11-1.5 1.7-2.9 3.4-4.4 5.1s-3 3.3-4.5 5c-3.1 3.3-6.5 6.5-10.6 8.9-4 2.4-8.5 4.3-13.4 4.7-2.5 0.2-5.2 0-7.7-1.4-0.3-0.1-0.6-0.3-0.9-0.5l-0.6-0.4c-0.2-0.1-0.5-0.3-0.8-0.5s-0.7-0.5-1-0.8c-1.2-1.2-1.7-2.5-2.2-3.8-0.8-2.5-1-4.8-1.3-7.1-0.2-2.3-0.2-4.6-0.2-6.8 0-2.3 0.1-4.5 0.2-6.8 0.1-1.1 0.1-2.3 0.2-3.4l0.1-1.7 0.1-0.9v-0.4-0.2 0-0.2l3-18.4c0.6-3.1 1.3-6.1 1.9-9.2 0.7-3 1.4-6.1 2.1-9.1 0.1-0.2 0.3-0.4 0.5-0.3 0.3 0.1 0.5 0.3 0.5 0.6z"/>
	
	
		<path class="st2" d="m173.9 316.5c0.8 10.2 3.6 20.3 9.1 28.6 0.4 0.5 0.7 1 1.1 1.5l1.1 1.5c0.7 1 1.6 1.9 2.4 2.8 1.7 1.9 3.5 3.7 5.4 5.2s3.9 2.8 6.1 3.6 4.5 1.1 6.8 1c4.6-0.2 9.1-2.5 12.9-5.5 2-1.5 3.8-3.2 5.6-5 1.7-1.8 3.4-3.6 4.8-5.7 5.9-8.1 9-18.1 10.1-28.3 0-0.3 0.3-0.5 0.5-0.4 0.3 0 0.4 0.2 0.4 0.5 0.1 5.2-0.5 10.5-1.8 15.6-0.7 2.6-1.6 5.1-2.6 7.5-1.1 2.4-2.3 4.8-3.8 7-1.4 2.3-3.2 4.3-5 6.3-1.8 1.9-3.7 3.8-5.8 5.5s-4.4 3.2-6.9 4.4-5.3 2-8.2 2.1c-2.9 0.2-5.8-0.3-8.5-1.3s-5.1-2.6-7.2-4.3c-2.1-1.8-3.9-3.8-5.6-5.7-1.7-2.1-3.4-4.2-4.7-6.5-5.6-9.2-7.7-20.1-7.2-30.5 0-0.3 0.2-0.5 0.5-0.5 0.2 0.1 0.4 0.3 0.5 0.6z"/>
	
	
		<path class="st2" d="m263.5 322.2c2.1 5.5 5.2 10.5 9.2 14.6 2 2.1 4.2 3.9 6.6 5.4 2.4 1.6 4.9 2.9 7.6 3.9s5.4 1.7 8.2 2.1 5.6 0.4 8.4 0.2 5.6-0.9 8.2-1.8c2.7-0.9 5.2-2.1 7.6-3.6s4.7-3.2 6.8-5.2c1.1-1 2.1-2 3.1-3 0.5-0.5 1-1.1 1.5-1.6l1.4-1.7 0.7-0.8 0.6-0.9 1.2-1.7c0.7-1.2 1.5-2.4 2.2-3.7 1.4-2.5 2.5-5.2 3.4-7.9 1.9-5.5 2.8-11.2 3.3-17.1 0.2-2.9 0.4-5.9 0.3-8.8 0-2.9-0.2-5.9-0.6-8.8l1-0.2c0.6 2.9 1.1 5.9 1.3 8.9 0.3 3 0.2 6 0.2 9s-0.3 6-0.7 9-1 6-1.9 8.9-2 5.8-3.4 8.5c-0.6 1.4-1.5 2.7-2.2 4l-1.3 1.9-0.6 1-0.7 0.9c-3.7 4.8-8.2 9.2-13.4 12.5s-11.2 5.5-17.5 6c-6.2 0.6-12.5-0.5-18.2-2.8-5.7-2.4-10.8-6.1-14.8-10.7s-6.9-10.1-8.4-16l0.9-0.5z"/>
	
	
		<path class="st2" d="m427.2 233.9c5.9 8.9 10.9 18.6 14.7 28.7 1.9 5 3.5 10.2 4.8 15.5s2.4 10.6 2.6 16.2c0.1 2.8 0.1 5.6-0.6 8.5-0.3 1.4-0.9 2.9-1.6 4.2-0.7 1.4-1.8 2.6-2.8 3.6-1.1 1-2.3 1.9-3.7 2.7-1.4 0.7-2.9 1.3-4.6 1.4-1.6 0.2-3.4-0.1-5-0.9-1.5-0.8-2.6-1.7-3.6-2.3s-1.9-1.1-3-1.3-2.2-0.3-3.4-0.2c-2.3 0.2-4.6 1.1-7 2.3-2.2 1.1-4.3 2.6-6.1 4.4s-3.5 3.8-4.9 6.1l-0.9-0.4c0.9-2.6 2.4-5 4.1-7.1 1.7-2.2 3.9-4.1 6.3-5.6 2.3-1.4 5-2.7 8-3.2 1.5-0.2 3.1-0.2 4.6 0.1s3.1 0.9 4.4 1.7 2.3 1.6 3.2 2 1.8 0.6 2.8 0.4c2-0.2 4.1-1.4 5.8-3 3.4-3 4.1-8.2 3.9-13.3s-1.1-10.3-2.2-15.5-2.5-10.3-4.2-15.3c-3.3-10-7.7-19.8-12.8-29.2l1.2-0.5z"/>
	
	
		<path class="st2" d="m430.4 321.5c-0.9 5.1-1.5 10.3-1.8 15.4-0.3 5.2-0.2 10.3 0.1 15.5 0.4 5.1 1.1 10.2 2 15.3s2 10.2 2.6 15.5c0.2 1.3 0.2 2.7 0.3 4 0 1.4 0 2.7-0.2 4.1-0.3 2.8-1 5.6-2.4 8.1-0.7 1.2-1.5 2.5-2.4 3.5-0.9 1.1-1.9 2.2-3 3.1s-2.5 1.7-3.9 2.3c-1.4 0.5-2.9 0.8-4.5 0.9-3.1 0.1-5.8-0.9-8.3-1.8-1.2-0.4-2.4-0.9-3.6-1.3s-2.3-0.7-3.5-0.8c-2.4-0.4-4.8-0.3-7.2 0.2s-4.7 1.4-7 2.6l-0.8-1.2c2.1-1.7 4.5-3.1 7.1-4s5.5-1.2 8.3-1c5.7 0.5 10.5 3.6 14.9 3.5 2.2 0 4.3-0.9 6-2.3 0.9-0.7 1.7-1.5 2.5-2.5s1.4-2 2-2.9c2.2-4.1 2.5-9.1 2-14.2-0.2-2.5-0.6-5.1-1-7.6l-1.2-7.7c-0.8-5.2-1.4-10.4-1.6-15.7s-0.1-10.6 0.5-15.8c0.3-2.6 0.6-5.2 1-7.8s1-5.2 1.6-7.7l1.5 0.3z"/>
	
	
		<path class="st2" d="m375.2 347.5c1.4 10.9 1.3 22.1-0.3 33.1-0.4 2.7-0.9 5.5-1.5 8.2s-1.4 5.4-2.3 8.1c-1 2.7-2.1 5.3-3.7 7.8-0.8 1.2-1.7 2.5-2.8 3.6s-2.4 2.1-3.7 2.9c-2.6 1.6-5.6 2.6-8.4 3.1-0.7 0.1-1.4 0.2-2.1 0.3l-2.2 0.2c-0.7 0.1-1.4 0.1-2.2 0.1-0.7 0-1.4 0.1-2.2 0-5.8-0.1-11.4-1.5-16.7-3.3-5.3-1.9-10.4-4.3-15.2-6.8l-7.3-3.8c-1.2-0.6-2.4-1.2-3.6-1.6s-2.4-0.7-3.4-0.7-1.7 0.3-2.3 1c-0.5 0.7-0.9 1.8-1.2 3.1-0.6 2.8-1.5 5.4-2.3 8.1-0.9 2.6-1.8 5.2-2.6 7.8s-1.4 5.1-2 7.8c-1.3 5.4-2.8 10.9-5.7 16.1-1.4 2.6-3.2 5-5.3 7.1-2 2.1-4.3 4-7 5.5-1.3 0.8-2.7 1.5-4.1 2-0.7 0.3-1.5 0.5-2.2 0.7-0.8 0.2-1.5 0.4-2.3 0.5-0.4 0.1-0.8 0.1-1.2 0.2l-1.2 0.1c-0.8 0.1-1.6 0-2.4 0-1.6-0.2-3.2-0.5-4.6-1.1-2.8-1.1-5.3-2.6-7.7-4.1-2.4-1.6-4.6-3.2-6.8-4.9-8.9-6.6-16.8-14.4-24-22.7l0.8-0.7c7.3 8.1 15.7 15.2 24.8 21 2.3 1.5 4.6 2.8 7 4 2.4 1.1 4.9 2.1 7.3 2.6 1.2 0.3 2.3 0.4 3.4 0.4 0.6 0 1.1 0 1.7-0.1s1.2-0.2 1.7-0.3c1.2-0.2 2.3-0.6 3.4-1s2.2-1 3.3-1.6c2.1-1.2 4.1-2.8 5.9-4.6 1.8-1.7 3.3-3.7 4.7-5.8 2.7-4.3 4.4-9.3 5.9-14.5 0.8-2.6 1.5-5.3 2.5-8l2.9-7.7c0.9-2.5 1.8-5.1 2.4-7.7 0.3-1.3 0.7-3 1.9-4.5 0.6-0.7 1.4-1.3 2.2-1.7 0.9-0.4 1.8-0.6 2.7-0.6 1.7 0 3.2 0.4 4.6 0.9s2.7 1.1 3.9 1.7c2.5 1.2 4.9 2.5 7.3 3.7 4.9 2.4 9.8 4.5 14.9 6.1s10.3 2.6 15.5 2.6h1.9c0.6 0 1.3 0 1.9-0.1l1.9-0.2c0.6-0.1 1.3-0.2 2-0.3 2.5-0.4 4.8-1.2 6.9-2.4 4.2-2.3 6.7-7 8.6-11.9 2-4.9 3.2-10.2 4.3-15.5s1.8-10.7 2.2-16.1c0.2-2.7 0.4-5.4 0.5-8.1s0.1-5.4 0-8.2l1.6 0.2z"/>
	
	
		<path class="st2" d="m140.4 395.2c1.5 5.7 4.1 11 7.8 15.4s8.4 7.8 13.6 9.9c2.6 1.1 5.4 1.6 8.2 2l2.1 0.2h2.1c0.7 0 1.4-0.1 2.1-0.1 0.7-0.1 1.4-0.1 2.1-0.3 5.7-0.9 11.2-3.1 16.1-6.3l0.6 0.8c-4.5 4.2-10.1 7.2-16.2 8.6-6.1 1.5-12.7 1-18.6-1.3-5.9-2.2-11.2-6.2-14.9-11.3s-6-11.2-6.2-17.3l1.2-0.3z"/>
	
	
		<path class="st2" d="m399.8 147.6c5.5 8.9 10.5 18.1 14.9 27.6 4.5 9.5 8.4 19.2 11.6 29.3 0.8 2.5 1.4 5.1 1.8 7.9 0.4 2.7 0.4 5.5-0.4 8.3s-2.4 5.4-4.6 7.2c-2.2 1.9-4.8 3-7.4 3.8s-5.2 1.3-7.8 1.7-5.3 0.6-8 0.5c-5.3-0.2-10.6-1.3-15.5-3.2l0.3-0.9c2.5 0.7 5 1.3 7.5 1.6 2.5 0.4 5.1 0.5 7.7 0.5 2.5-0.1 5.1-0.3 7.6-0.8s5.1-1.1 7.4-1.9c2.4-0.8 4.6-1.9 6.4-3.4s3-3.6 3.6-5.8c0.6-2.3 0.6-4.7 0.3-7.2s-0.9-4.9-1.7-7.4c-3.1-9.9-6.8-19.6-10.9-29.1-4.2-9.5-8.8-18.9-13.7-28.1l0.9-0.6z"/>
	


	<path class="st4" d="m175.4 31.1"/>
	<path class="st4" d="m190.5 80.7c0.1 11.3-20.5 24-37 20.3-4.6-0.6-6.9-7-7.8-15.8 1.6 0.1 3.3 0.2 4.9 0.2 12.9 0 24.7-4.7 34-12.6 3.7 4 5.8 4.7 5.9 7.9z"/>
	<path class="st5" d="m184.6 72.9c-9.2 7.9-21.1 12.6-34 12.6-1.7 0-3.3-0.1-4.9-0.2-0.4-4.4-0.5-9.4-0.3-14.6 2.3 0.4 4.7 0.6 7.1 0.6 9.2 0 17.8-2.8 24.9-7.5 1.2 1.8 2.4 3.4 3.4 4.8 1.4 1.8 2.7 3.2 3.8 4.3z"/>
	<path class="st6" d="m177.5 63.8c-7.2 4.7-15.7 7.5-24.9 7.5-2.4 0-4.8-0.2-7.1-0.6 0.2-4.2 0.5-8.4 1-12.6 2.1 0.4 4.3 0.6 6.5 0.6 6.8 0 13.1-1.9 18.4-5.3 2 4.1 4.1 7.5 6.1 10.4z"/>
	<path class="st4" d="m171.4 53.4c-5.3 3.3-11.7 5.3-18.4 5.3-2.2 0-4.4-0.2-6.5-0.6 0.4-3.8 0.9-7.6 1.5-11.2 1.6 0.3 3.3 0.5 5 0.5 5.2 0 10-1.6 14-4.3 1.4 3.8 2.9 7.2 4.4 10.3z"/>
	<path class="st4" d="m167 43c-4 2.8-8.8 4.3-14 4.3-1.7 0-3.4-0.2-5-0.5 0.6-3.6 1.2-6.9 1.9-9.8 1 0.2 2 0.3 3.1 0.3 4.3 0 8.2-1.8 11-4.8 0.8 3.9 1.9 7.4 3 10.5z"/>
	<path class="st4" d="m163.9 32.6c-2.7 3-6.6 4.8-11 4.8-1.1 0-2.1-0.1-3.1-0.3 0.1-0.6 0.3-1.2 0.4-1.7 3.3-13.7 6-15.4 7.4-15.5 2 0 4.3 3.3 5.1 7.3 0.4 1.9 0.8 3.7 1.2 5.4z"/>
	<path class="st4" d="m175.4 31.1"/>
	<linearGradient id="b" x1="141.77" x2="187.87" y1="65.506" y2="53.921" gradientUnits="userSpaceOnUse">
		<stop stop-color="#B8E1DB" stop-opacity="0" offset="0"/>
		<stop stop-color="#B7B488" stop-opacity=".4888" offset=".3792"/>
		<stop stop-color="#B59B5C" stop-opacity=".8349" offset=".6477"/>
		<stop stop-color="#B4924A" offset=".7758"/>
	</linearGradient>
	<path class="st7" d="m190.5 80.7c0.1 11.3-20.5 24-37 20.3-4.6-0.6-6.9-7-7.8-15.8-0.4-4.4-0.5-9.4-0.3-14.6 0.2-4.2 0.5-8.4 1-12.6 0.4-3.8 0.9-7.6 1.5-11.2s1.2-6.9 1.9-9.8c0.1-0.6 0.3-1.2 0.4-1.7 3.3-13.7 6-15.4 7.4-15.5 2 0 4.3 3.3 5.1 7.3 0.3 1.9 0.7 3.7 1.2 5.4 0.9 3.8 2 7.3 3.1 10.5 1.4 3.9 2.9 7.3 4.4 10.3 2 4.1 4.1 7.5 6.1 10.4 1.2 1.8 2.4 3.4 3.4 4.8 1.3 1.8 2.6 3.2 3.7 4.3 3.7 4 5.8 4.7 5.9 7.9z"/>
	
		<path class="st8" d="m190.5 80.7c0.1 11.3-20.5 24-37 20.3-4.6-0.6-6.9-7-7.8-15.8-0.4-4.4-0.5-9.4-0.3-14.6 0.2-4.2 0.5-8.4 1-12.6 0.4-3.8 0.9-7.6 1.5-11.2s1.2-6.9 1.9-9.8c0.1-0.6 0.3-1.2 0.4-1.7 3.3-13.7 6-15.4 7.4-15.5 2 0 4.3 3.3 5.1 7.3 0.3 1.9 0.7 3.7 1.2 5.4 0.9 3.8 2 7.3 3.1 10.5 1.4 3.9 2.9 7.3 4.4 10.3 2 4.1 4.1 7.5 6.1 10.4 1.2 1.8 2.4 3.4 3.4 4.8 1.3 1.8 2.6 3.2 3.7 4.3 3.7 4 5.8 4.7 5.9 7.9z"/>
		<path class="st8" d="m175.4 31.1"/>
		<path class="st8" d="m190.5 80.7c0.1 11.3-20.5 24-37 20.3-4.6-0.6-6.9-7-7.8-15.8 1.6 0.1 3.3 0.2 4.9 0.2 12.9 0 24.7-4.7 34-12.6 3.7 4 5.8 4.7 5.9 7.9z"/>
		<path class="st9" d="m184.6 72.9c-9.2 7.9-21.1 12.6-34 12.6-1.7 0-3.3-0.1-4.9-0.2-0.4-4.4-0.5-9.4-0.3-14.6 2.3 0.4 4.7 0.6 7.1 0.6 9.2 0 17.8-2.8 24.9-7.5 1.2 1.8 2.4 3.4 3.4 4.8 1.4 1.8 2.7 3.2 3.8 4.3z"/>
		<path class="st10" d="m177.5 63.8c-7.2 4.7-15.7 7.5-24.9 7.5-2.4 0-4.8-0.2-7.1-0.6 0.2-4.2 0.5-8.4 1-12.6 2.1 0.4 4.3 0.6 6.5 0.6 6.8 0 13.1-1.9 18.4-5.3 2 4.1 4.1 7.5 6.1 10.4z"/>
		<path class="st8" d="m171.4 53.4c-5.3 3.3-11.7 5.3-18.4 5.3-2.2 0-4.4-0.2-6.5-0.6 0.4-3.8 0.9-7.6 1.5-11.2 1.6 0.3 3.3 0.5 5 0.5 5.2 0 10-1.6 14-4.3 1.4 3.8 2.9 7.2 4.4 10.3z"/>
		<path class="st8" d="m167 43c-4 2.8-8.8 4.3-14 4.3-1.7 0-3.4-0.2-5-0.5 0.6-3.6 1.2-6.9 1.9-9.8 1 0.2 2 0.3 3.1 0.3 4.3 0 8.2-1.8 11-4.8 0.8 3.9 1.9 7.4 3 10.5z"/>
		<path class="st8" d="m163.9 32.6c-2.7 3-6.6 4.8-11 4.8-1.1 0-2.1-0.1-3.1-0.3 0.1-0.6 0.3-1.2 0.4-1.7 3.3-13.7 6-15.4 7.4-15.5 2 0 4.3 3.3 5.1 7.3 0.4 1.9 0.8 3.7 1.2 5.4z"/>
		<path class="st8" d="m175.4 31.1"/>
	
	<path class="st4" d="m332 31.1"/>
	<path class="st4" d="m317 80.7c-0.1 11.3 20.5 24 37 20.3 4.6-0.6 6.9-7 7.8-15.8-1.6 0.1-3.3 0.2-4.9 0.2-12.9 0-24.7-4.7-34-12.6-3.8 4-5.9 4.7-5.9 7.9z"/>
	<path class="st5" d="m322.9 72.9c9.2 7.9 21.1 12.6 34 12.6 1.7 0 3.3-0.1 4.9-0.2 0.4-4.4 0.5-9.4 0.3-14.6-2.3 0.4-4.7 0.6-7.1 0.6-9.2 0-17.8-2.8-24.9-7.5-1.2 1.8-2.4 3.4-3.4 4.8-1.5 1.8-2.8 3.2-3.8 4.3z"/>
	<path class="st6" d="m329.9 63.8c7.2 4.7 15.7 7.5 24.9 7.5 2.4 0 4.8-0.2 7.1-0.6-0.2-4.2-0.5-8.4-1-12.6-2.1 0.4-4.3 0.6-6.5 0.6-6.8 0-13.1-1.9-18.4-5.3-2 4.1-4.1 7.5-6.1 10.4z"/>
	<path class="st4" d="m336 53.4c5.3 3.3 11.7 5.3 18.4 5.3 2.2 0 4.4-0.2 6.5-0.6-0.4-3.8-0.9-7.6-1.5-11.2-1.6 0.3-3.3 0.5-5 0.5-5.2 0-10-1.6-14-4.3-1.3 3.8-2.8 7.2-4.4 10.3z"/>
	<path class="st4" d="m340.4 43c4 2.8 8.8 4.3 14 4.3 1.7 0 3.4-0.2 5-0.5-0.6-3.6-1.2-6.9-1.9-9.8-1 0.2-2 0.3-3.1 0.3-4.3 0-8.2-1.8-11-4.8-0.8 3.9-1.9 7.4-3 10.5z"/>
	<path class="st4" d="m343.5 32.6c2.7 3 6.6 4.8 11 4.8 1.1 0 2.1-0.1 3.1-0.3-0.1-0.6-0.3-1.2-0.4-1.7-3.3-13.7-6-15.4-7.4-15.5-2 0-4.3 3.3-5.1 7.3-0.4 1.9-0.8 3.7-1.2 5.4z"/>
	<path class="st4" d="m332 31.1"/>
	
		<linearGradient id="a" x1="-29.877" x2="16.224" y1="65.506" y2="53.921" gradientTransform="matrix(-1 0 0 1 335.78 0)" gradientUnits="userSpaceOnUse">
		<stop stop-color="#B8E1DB" stop-opacity="0" offset="0"/>
		<stop stop-color="#B7B488" stop-opacity=".4888" offset=".3792"/>
		<stop stop-color="#B59B5C" stop-opacity=".8349" offset=".6477"/>
		<stop stop-color="#B4924A" offset=".7758"/>
	</linearGradient>
	<path class="st11" d="m317 80.7c-0.1 11.3 20.5 24 37 20.3 4.6-0.6 6.9-7 7.8-15.8 0.4-4.4 0.5-9.4 0.3-14.6-0.2-4.2-0.5-8.4-1-12.6-0.4-3.8-0.9-7.6-1.5-11.2s-1.2-6.9-1.9-9.8c-0.1-0.6-0.3-1.2-0.4-1.7-3.3-13.7-6-15.4-7.4-15.5-2 0-4.3 3.3-5.1 7.3-0.3 1.9-0.7 3.7-1.2 5.4-0.9 3.8-2 7.3-3.1 10.5-1.4 3.9-2.9 7.3-4.4 10.3-2 4.1-4.1 7.5-6.1 10.4-1.2 1.8-2.4 3.4-3.4 4.8-1.3 1.8-2.6 3.2-3.7 4.3-3.8 4-5.9 4.7-5.9 7.9z"/>
	
		<path class="st8" d="m316.8 80.7c-0.1 11.3 20.5 24 37 20.3 4.6-0.6 6.9-7 7.8-15.8 0.4-4.4 0.5-9.4 0.3-14.6-0.2-4.2-0.5-8.4-1-12.6-0.4-3.8-0.9-7.6-1.5-11.2s-1.2-6.9-1.9-9.8c-0.1-0.6-0.3-1.2-0.4-1.7-3.3-13.7-6-15.4-7.4-15.5-2 0-4.3 3.3-5.1 7.3-0.3 1.9-0.7 3.7-1.2 5.4-0.9 3.8-2 7.3-3.1 10.5-1.4 3.9-2.9 7.3-4.4 10.3-2 4.1-4.1 7.5-6.1 10.4-1.2 1.8-2.4 3.4-3.4 4.8-1.3 1.8-2.6 3.2-3.7 4.3-3.8 4-5.9 4.7-5.9 7.9z"/>
		<path class="st8" d="m331.8 31.1"/>
		<path class="st8" d="m316.8 80.7c-0.1 11.3 20.5 24 37 20.3 4.6-0.6 6.9-7 7.8-15.8-1.6 0.1-3.3 0.2-4.9 0.2-12.9 0-24.7-4.7-34-12.6-3.8 4-5.9 4.7-5.9 7.9z"/>
		<path class="st9" d="m322.7 72.9c9.2 7.9 21.1 12.6 34 12.6 1.7 0 3.3-0.1 4.9-0.2 0.4-4.4 0.5-9.4 0.3-14.6-2.3 0.4-4.7 0.6-7.1 0.6-9.2 0-17.8-2.8-24.9-7.5-1.2 1.8-2.4 3.4-3.4 4.8-1.5 1.8-2.7 3.2-3.8 4.3z"/>
		<path class="st10" d="m329.8 63.8c7.2 4.7 15.7 7.5 24.9 7.5 2.4 0 4.8-0.2 7.1-0.6-0.2-4.2-0.5-8.4-1-12.6-2.1 0.4-4.3 0.6-6.5 0.6-6.8 0-13.1-1.9-18.4-5.3-2.1 4.1-4.2 7.5-6.1 10.4z"/>
		<path class="st8" d="m335.8 53.4c5.3 3.3 11.7 5.3 18.4 5.3 2.2 0 4.4-0.2 6.5-0.6-0.4-3.8-0.9-7.6-1.5-11.2-1.6 0.3-3.3 0.5-5 0.5-5.2 0-10-1.6-14-4.3-1.3 3.8-2.8 7.2-4.4 10.3z"/>
		<path class="st8" d="m340.2 43c4 2.8 8.8 4.3 14 4.3 1.7 0 3.4-0.2 5-0.5-0.6-3.6-1.2-6.9-1.9-9.8-1 0.2-2 0.3-3.1 0.3-4.3 0-8.2-1.8-11-4.8-0.8 3.9-1.8 7.4-3 10.5z"/>
		<path class="st8" d="m343.3 32.6c2.7 3 6.6 4.8 11 4.8 1.1 0 2.1-0.1 3.1-0.3-0.1-0.6-0.3-1.2-0.4-1.7-3.3-13.7-6-15.4-7.4-15.5-2 0-4.3 3.3-5.1 7.3-0.4 1.9-0.8 3.7-1.2 5.4z"/>
		<path class="st8" d="m331.8 31.1"/>
	



	
		
			<image transform="matrix(.24 0 0 .24 129.28 227.8)" width="1031" height="322" overflow="visible" xlink:href="67B82836.png">
		</image>
	
	
		
			<image transform="matrix(.24 0 0 .24 298.06 228.7)" width="328" height="321" overflow="visible" xlink:href="67B82834.png">
		</image>
	
	
		
			<image transform="matrix(.24 0 0 .24 130 228.52)" width="326" height="321" overflow="visible" xlink:href="67B8283A.png">
		</image>
	
	<path class="st12" d="m337.9 254.8c-3.8-0.6-9.1-0.8-17-0.8-5.2 0-11.3 0.1-17.8 0.2-4 0.1-8.3 0.1-12.8 0.2s-9.2 0.1-14 0.1c-7.6 0-14.5-0.1-21.2-0.3-18.3-0.5-34.2-0.8-47.2-0.8-12.7 0-22.6 0.3-29.7 0.8-9.9 0.7-17.6 1.8-20.4 8.8-1.6 4.1-0.5 8.8 2.8 11.9 5.6 5.3 15.7 6.1 76.8 6.1h17.4 21.8c17.1 0 34.9 0 47.3-0.5 6.5-0.3 11.3-0.6 14.7-1.1 11.2-1.6 13.5-7.3 13.5-11.8 0-4-1.9-11-14.2-12.8zm-83.2 16.2c-48.2 0-83.4 0.3-87.3-3.4-4.9-4.6 36.4-4.9 87.3-3.4 48.2 1.4 87.3-3.1 87.3 3.4 0.1 3.7-39 3.4-87.3 3.4z"/>


	<path class="st13" d="m182.7 263.9c-12.1 0.6-18.6 1.8-16.5 3.7 1.4 1.3 6.6 2.1 14.9 2.6 7.3 0.3 18.9 0.6 33.3 0.8 12 0.1 19.9 0.1 39.1 0 26 0 28.7 0.1 39.5 0 14.2-0.1 25.7-0.4 33-0.7"/>
	<path class="st14" d="m323.7 264.1c0.1 0 0.1 0 0 0 10.8 0.2 17.1 1 17.1 3.6 0 1.5-5.9 2.3-16 2.8"/>
	<path class="st15" d="m212.1 263.1c12.4 0.1 26.5 0.5 41.5 1.1s29.2 0.4 41.6 0.2"/>


	<path class="st16" d="m324.8 270.4c-8.2 0.4-19.1 0.5-31.8 0.6-0.3-0.6-0.3-1.2 0-1.9l13.5-31c1.1-2.6 4.7-2.6 5.9 0l11.3 25.8 0.1 0.2 1.5 3.5c0.5 1 0.2 2.1-0.5 2.8z"/>
	<path class="st17" d="m324.8 270.4c-1.4 0.1-2.8 0.1-4.4 0.2-7.5 0.3-16.8 0.4-27.4 0.4-0.3-0.6-0.3-1.2 0-1.9l13.5-31c0.3-0.8 0.9-1.4 1.6-1.7 1.5-0.7 3.5-0.1 4.2 1.6l11.3 25.8 0.1 0.2 1.5 3.5c0.6 1.1 0.3 2.2-0.4 2.9z"/>
	<path class="st18" d="m324.8 270c-1.4 0.1-2.8 0.1-4.4 0.2-1.8-4.6-4-11-7.2-19.8-1.9-5.4-3.7-10.3-5.1-14.3 1.5-0.7 3.5-0.1 4.2 1.6l11.3 25.8 0.1 0.2 1.5 3.5c0.6 1 0.3 2.1-0.4 2.8z"/>
	<path class="st16" d="m214.1 270.6c-13.6-0.1-25-0.3-33.3-0.8-0.5-0.7-0.6-1.6-0.3-2.4l1.8-3.9 12.5-26.7c1-2.1 3.9-2.1 4.9 0l14.5 31.5c0.3 0.9 0.2 1.7-0.1 2.3z"/>
	<path class="st16" d="m205.4 270.6c-9.8-0.1-18.2-0.3-24.6-0.7-0.5-0.7-0.7-1.6-0.3-2.4l1.8-3.9 12.5-26.7c0.1-0.2 0.2-0.4 0.4-0.6 1.7 5.6 3.4 11.5 4.7 15.7 1.5 5.1 3.6 12.1 5.5 18.6z"/>
	<path class="st18" d="m214.1 270.6c-3 0-5.9 0-8.6-0.1-1.9-6.4-4-13.4-5.5-18.6-1.3-4.2-3-10.1-4.7-15.7 1.2-1.4 3.6-1.2 4.5 0.6l14.5 31.5c0.2 0.9 0.1 1.7-0.2 2.3z"/>
	<path class="st17" d="m214.1 270.6c-3 0-5.9 0-8.6-0.1-9.8-0.1-18.2-0.3-24.6-0.7-0.5-0.7-0.7-1.6-0.3-2.4l1.8-3.9 12.5-26.7c0.1-0.2 0.2-0.4 0.4-0.6 1.2-1.4 3.6-1.2 4.5 0.6l14.5 31.5c0.2 0.9 0.1 1.7-0.2 2.3z"/>
	<path class="st16" d="m215 271.3"/>


	<ellipse cx="195.2" cy="168.1" rx="18.2" ry="25.5"/>
	<path class="st19" d="m213.4 168.1v0.5c-0.2-13.4-8-24.1-17.5-24.1-9.7 0-17.5 11-17.5 24.6 0 13.4 7.7 24.3 17.2 24.6h-0.3c-10 0-18.2-11.4-18.2-25.5s8.1-25.5 18.2-25.5c10-0.1 18.1 11.3 18.1 25.4z"/>
	<ellipse cx="316" cy="168.1" rx="18.2" ry="25.5"/>
	<path class="st19" d="m334.2 168.1v0.5c-0.2-13.4-8-24.1-17.5-24.1-9.7 0-17.5 11-17.5 24.6 0 13.4 7.7 24.3 17.2 24.6h-0.3c-10 0-18.2-11.4-18.2-25.5s8.1-25.5 18.2-25.5c10-0.1 18.1 11.3 18.1 25.4z"/>

</svg>
