<?xml version="1.0" encoding="utf-8"?>
<!-- Generator: Adobe Illustrator 23.0.2, SVG Export Plug-In . SVG Version: 6.00 Build 0)  -->
<svg version="1.1" xmlns="http://www.w3.org/2000/svg" xmlns:xlink="http://www.w3.org/1999/xlink" x="0px" y="0px"
	 viewBox="0 0 499.4 542.3" style="enable-background:new 0 0 499.4 542.3;" xml:space="preserve">
<style type="text/css">
	.st0{fill:#7BCBBD;stroke:#2090AC;stroke-width:4;stroke-miterlimit:10;}
	.st1{opacity:0.5;}
	.st2{fill:#2090AC;}
	.st3{fill:none;stroke:#2090AC;stroke-miterlimit:10;}
	.st4{fill:#F3E6CE;stroke:#F4DAAB;stroke-miterlimit:10;}
	.st5{fill:#F3E6CE;stroke:#F4DAAB;stroke-width:0.9858;stroke-miterlimit:10;}
	.st6{fill:#F3E6CE;stroke:#F4DAAB;stroke-width:1.0072;stroke-miterlimit:10;}
	.st7{fill:url(#SVGID_1_);}
	.st8{fill:none;stroke:#4C3D1F;stroke-miterlimit:10;}
	.st9{fill:none;stroke:#4C3D1F;stroke-width:0.9858;stroke-miterlimit:10;}
	.st10{fill:none;stroke:#4C3D1F;stroke-width:1.0072;stroke-miterlimit:10;}
	.st11{fill:url(#SVGID_2_);}
	.st12{fill:#7BCBBD;}
	.st13{fill:none;stroke:#000000;stroke-miterlimit:10;}
	.st14{fill:none;stroke:#000000;stroke-width:0.9994;stroke-miterlimit:10;}
	.st15{fill:none;stroke:#000000;stroke-width:1.1511;stroke-miterlimit:10;}
	.st16{fill:#FFFAEC;}
	.st17{fill:none;stroke:#000000;stroke-width:0.25;stroke-miterlimit:10;}
	.st18{opacity:0.35;fill:#E8DEC8;}
	.st19{opacity:0.52;fill:#FFFEFF;}
</style>
<g id="Layer_1">
</g>
<g id="Corp_Baza">
	<path class="st0" d="M252.5,49.7c0,0-54.1,0.8-94.1,18.7c-0.1,0-0.1,0.1-0.2,0.1c-22.1,11.4-24.1,14.8-70.1,47.2
		c-16.6,11.7-59.3,36.7-56.6,57.5c0,0.3,0.1,0.6,0.2,0.9c2.7,6.4,10.7,11.6,11.7,13.4c6.6,11-8.5,21.6-22.7,58.3
		c0,0.1-0.1,0.3-0.1,0.4c-1,3.7-1.9,8.3,0.1,12.8c3.2,7.4,9.4,9.2,14.8,12.8c1.9,1.3,3.1,3.4,3.2,5.7c0.7,13-7,43.2,0.1,50.6
		c8.1,9.4,20.3-0.1,27.5,7.4c2.1,1.7,3.4,13.3,3.1,25.5c-0.1,3.4-0.8,6.8-2.2,9.9c-3.2,7.5-3.8,12.8-2.2,16.2
		c4.7,10,11.9,7.6,20,11.3c3.6,1.7,5.9,5.3,6.2,9.2c0.8,13.6,3.1,24.9,12.6,32.2c0.3,0.2,0.6,0.4,0.9,0.5c1.8,0.6,3.4,0.3,3.7,1.3
		c0.5,0.8-0.2,4.1,0.7,6.3c0,0,0.3,0.7,0.7,1.3c2.3,3.5,9.2,1.4,14.1,2.7c0.2,0.1,0.5,0.1,0.7,0.3c5.7,3.3,8.9,28.9,20,35.2
		c0.2,0.1,0.4,0.2,0.6,0.3c7.2,2.5,15.8-6.9,24.9-2.5c4,1.9,14.8,23,25.6,23c14.4,0,9.5-8.6,21.5-8.9c9.1-0.2,17,5.2,21.7,9
		c10.4,8.5,11.2,16.3,16,16c12,2.3,20.3,0.6,24.6-4.4c0.4-0.4,7.4-20.6,12.8-21.5c1.6-0.3,2.4,0.1,13.3,5.4
		c10.2,5.1,9.1,5.2,10.6,5.1c11-0.1,16.9-34.1,28.6-34.4c7.5-0.2,10.4,14,18.4,13.3c7.3-0.7,12.2-13.4,13.6-17
		c4.8-12.4,2.1-20.9,6.5-22.8c4.3-1.8,8.6,5.8,13.6,5.1c5.3-0.7,8.7-9.2,12.1-41.9c0.2-1.9,1.9-3.3,3.8-3.1c3.5,0.3,6.8-0.9,7.9-1.3
		c6.7-2.2,11.3-12.5,10.1-25.9c-0.2-2.3,1.9-4.3,4.2-3.7c0,0,0,0,0.1,0c6.6,1.5,8,6.7,11.9,7.1c4.6,0.5,8.9-6.3,11.6-10.6
		c2.8-4.5,7.6-12.1,8.5-23.8c1-13.4-4.2-17.3-5.8-35.7c-0.4-4.7-0.4-8.9-0.3-12.4c0.1-2.3,2.3-3.9,4.6-3.2c3.6,1.1,7.6,0.9,11.1-0.8
		c6.6-3.2,8.2-11.1,8.5-12.9c3.1-15.7-12.5-23-12.3-44.6c0.1-5.7,1.2-5.4,1-11.2c-0.2-9.1-3.1-16.9-6.6-23.2c-1.4-2.6,0.9-5.7,3.8-5
		c4.8,1.1,10.2,1.5,12.3-1.3c1.3-1.8,0.8-4.4,0.3-6.1c-4.3-17-12.6-27.2-12.6-27.2c-3.4-4.1-7.2-8.4-36.4-34.4
		c-4.2-3.7-7.2-6.4-11.6-10.6c-9.3-8.9-13.7-14-18.4-18.7c-9.4-9.5-17.9-15-27.2-21.1c-34.3-22.4-68.9-27.2-79-28.9
		C280.5,49.3,267.4,49.6,252.5,49.7z"/>
	<path class="st0" d="M239,508.3c8.8,7.2,8.3,11.2,12.9,14.3c1.6,1.1,3.4,1.7,5.3,2c10.9,1.7,18.4,0,22.5-4.8"/>
	<g class="st1">
		
			<image style="overflow:visible;" width="1625" height="2210" xlink:href="67B82835.png"  transform="matrix(0.24 0 0 0.24 166.4774 63.4)">
		</image>
	</g>
</g>
<g id="Layer_4">
	<g>
		<path class="st2" d="M74,231.4c-2,3.8-4.9,7.2-8.8,9.5c-1.9,1.2-4,2-6.2,2.5c-2.2,0.5-4.4,0.6-6.7,0.4c-2.2-0.1-4.5-0.6-6.7-1.6
			c-1.1-0.5-2.2-1.3-3.1-2.4c-0.2-0.3-0.4-0.6-0.6-0.9c-0.2-0.3-0.3-0.7-0.4-1.1c-0.2-0.8-0.2-1.5-0.1-2.2c0.2-1.4,0.8-2.5,1.4-3.5
			c0.6-1,1.3-1.8,1.8-2.7c1.2-1.7,2.2-3.4,3.1-5.2c0.9-1.8,1.5-3.6,2.1-5.6c0.6-2,1.2-4.1,2-6.1c1.5-4,3.4-7.8,5.5-11.6
			c4.1-7.4,8.9-14.4,14.2-21l0.8,0.6c-4.7,7-8.9,14.1-12.7,21.6c-1.9,3.7-3.6,7.5-4.9,11.4c-0.7,1.9-1.2,3.9-1.8,5.9
			c-0.6,2-1.2,4.2-2.2,6.2c-1,2-2.1,3.9-3.3,5.7c-0.6,0.9-1.2,1.7-1.7,2.5c-0.5,0.8-0.9,1.6-1,2.3c-0.1,0.7,0,1.1,0.4,1.7
			c0.4,0.5,1.1,1,1.8,1.4c1.6,0.8,3.5,1.2,5.5,1.4c1.9,0.2,3.9,0.2,5.9-0.1c1.9-0.3,3.8-0.9,5.6-1.7c3.5-1.8,6.6-4.6,9.1-7.8
			L74,231.4z"/>
	</g>
	<path class="st3" d="M75.8,281"/>
	<g>
		<path class="st2" d="M82.3,281.1c-0.3,3.1-0.7,6.2-1,9.3c-0.4,3.1-0.8,6.2-1.1,9.2l-0.9,9.3l-1,9.2l0-0.2l-0.1,1.8l-0.1,1.6
			c0,1.1-0.1,2.2-0.1,3.3c0,2.2,0,4.4,0,6.6c0.1,2.2,0.1,4.4,0.3,6.5c0.2,2.1,0.5,4.2,1.1,6c0.3,0.9,0.7,1.6,1.1,2
			c0.2,0.2,0.3,0.3,0.9,0.6l0.8,0.5c0.2,0.1,0.3,0.2,0.5,0.3c1.4,0.8,3.3,1.1,5.3,0.9c1.9-0.1,4-0.6,5.9-1.3
			c1.9-0.7,3.9-1.6,5.7-2.6c3.7-2,6.9-4.9,10-8c3.1-3,6.3-6.3,9.3-9.4c3-3.2,5.9-6.5,8.4-10.1c2.5-3.6,4.7-7.4,6.6-11.5
			c0.1-0.2,0.4-0.3,0.6-0.2c0.2,0.1,0.3,0.3,0.2,0.5c-1.4,4.3-3.2,8.4-5.5,12.3c-2.3,4-5,7.6-7.9,11c-1.5,1.7-2.9,3.4-4.4,5.1
			c-1.5,1.7-3,3.3-4.5,5c-3.1,3.3-6.5,6.5-10.6,8.9c-4,2.4-8.5,4.3-13.4,4.7c-2.5,0.2-5.2,0-7.7-1.4c-0.3-0.1-0.6-0.3-0.9-0.5
			l-0.6-0.4c-0.2-0.1-0.5-0.3-0.8-0.5c-0.3-0.2-0.7-0.5-1-0.8c-1.2-1.2-1.7-2.5-2.2-3.8c-0.8-2.5-1-4.8-1.3-7.1
			c-0.2-2.3-0.2-4.6-0.2-6.8c0-2.3,0.1-4.5,0.2-6.8c0.1-1.1,0.1-2.3,0.2-3.4l0.1-1.7l0.1-0.9l0-0.4l0-0.2c0,0,0-0.2,0,0l0-0.2
			l1.5-9.2l1.5-9.2c0.6-3.1,1.3-6.1,1.9-9.2c0.7-3,1.4-6.1,2.1-9.1c0.1-0.2,0.3-0.4,0.5-0.3C82.1,280.6,82.3,280.8,82.3,281.1
			L82.3,281.1z"/>
	</g>
	<g>
		<path class="st2" d="M173.9,316.5c0.8,10.2,3.6,20.3,9.1,28.6c0.4,0.5,0.7,1,1.1,1.5l1.1,1.5c0.7,1,1.6,1.9,2.4,2.8
			c1.7,1.9,3.5,3.7,5.4,5.2c1.9,1.5,3.9,2.8,6.1,3.6c2.2,0.8,4.5,1.1,6.8,1c4.6-0.2,9.1-2.5,12.9-5.5c2-1.5,3.8-3.2,5.6-5
			c1.7-1.8,3.4-3.6,4.8-5.7c5.9-8.1,9-18.1,10.1-28.3c0-0.3,0.3-0.5,0.5-0.4c0.3,0,0.4,0.2,0.4,0.5c0.1,5.2-0.5,10.5-1.8,15.6
			c-0.7,2.6-1.6,5.1-2.6,7.5c-1.1,2.4-2.3,4.8-3.8,7c-1.4,2.3-3.2,4.3-5,6.3c-1.8,1.9-3.7,3.8-5.8,5.5c-2.1,1.7-4.4,3.2-6.9,4.4
			c-2.5,1.2-5.3,2-8.2,2.1c-2.9,0.2-5.8-0.3-8.5-1.3c-2.7-1-5.1-2.6-7.2-4.3c-2.1-1.8-3.9-3.8-5.6-5.7c-1.7-2.1-3.4-4.2-4.7-6.5
			c-5.6-9.2-7.7-20.1-7.2-30.5c0-0.3,0.2-0.5,0.5-0.5C173.6,316,173.8,316.2,173.9,316.5z"/>
	</g>
	<g>
		<path class="st2" d="M263.5,322.2c2.1,5.5,5.2,10.5,9.2,14.6c2,2.1,4.2,3.9,6.6,5.4c2.4,1.6,4.9,2.9,7.6,3.9
			c2.7,1,5.4,1.7,8.2,2.1c2.8,0.4,5.6,0.4,8.4,0.2c2.8-0.2,5.6-0.9,8.2-1.8c2.7-0.9,5.2-2.1,7.6-3.6c2.4-1.5,4.7-3.2,6.8-5.2
			c1.1-1,2.1-2,3.1-3c0.5-0.5,1-1.1,1.5-1.6l1.4-1.7l0.7-0.8l0.6-0.9l1.2-1.7c0.7-1.2,1.5-2.4,2.2-3.7c1.4-2.5,2.5-5.2,3.4-7.9
			c1.9-5.5,2.8-11.2,3.3-17.1c0.2-2.9,0.4-5.9,0.3-8.8c0-2.9-0.2-5.9-0.6-8.8l1-0.2c0.6,2.9,1.1,5.9,1.3,8.9c0.3,3,0.2,6,0.2,9
			c0,3-0.3,6-0.7,9c-0.4,3-1,6-1.9,8.9c-0.9,2.9-2,5.8-3.4,8.5c-0.6,1.4-1.5,2.7-2.2,4l-1.3,1.9l-0.6,1l-0.7,0.9
			c-3.7,4.8-8.2,9.2-13.4,12.5c-5.2,3.3-11.2,5.5-17.5,6c-6.2,0.6-12.5-0.5-18.2-2.8c-5.7-2.4-10.8-6.1-14.8-10.7
			c-4-4.6-6.9-10.1-8.4-16L263.5,322.2z"/>
	</g>
	<g>
		<path class="st2" d="M427.2,233.9c5.9,8.9,10.9,18.6,14.7,28.7c1.9,5,3.5,10.2,4.8,15.5c1.3,5.3,2.4,10.6,2.6,16.2
			c0.1,2.8,0.1,5.6-0.6,8.5c-0.3,1.4-0.9,2.9-1.6,4.2c-0.7,1.4-1.8,2.6-2.8,3.6c-1.1,1-2.3,1.9-3.7,2.7c-1.4,0.7-2.9,1.3-4.6,1.4
			c-1.6,0.2-3.4-0.1-5-0.9c-1.5-0.8-2.6-1.7-3.6-2.3c-1-0.6-1.9-1.1-3-1.3c-1.1-0.2-2.2-0.3-3.4-0.2c-2.3,0.2-4.6,1.1-7,2.3
			c-2.2,1.1-4.3,2.6-6.1,4.4c-1.8,1.8-3.5,3.8-4.9,6.1l-0.9-0.4c0.9-2.6,2.4-5,4.1-7.1c1.7-2.2,3.9-4.1,6.3-5.6c2.3-1.4,5-2.7,8-3.2
			c1.5-0.2,3.1-0.2,4.6,0.1c1.5,0.3,3.1,0.9,4.4,1.7c1.3,0.8,2.3,1.6,3.2,2c0.9,0.4,1.8,0.6,2.8,0.4c2-0.2,4.1-1.4,5.8-3
			c3.4-3,4.1-8.2,3.9-13.3c-0.2-5.1-1.1-10.3-2.2-15.5c-1.1-5.2-2.5-10.3-4.2-15.3c-3.3-10-7.7-19.8-12.8-29.2L427.2,233.9z"/>
	</g>
	<g>
		<path class="st2" d="M430.4,321.5c-0.9,5.1-1.5,10.3-1.8,15.4c-0.3,5.2-0.2,10.3,0.1,15.5c0.4,5.1,1.1,10.2,2,15.3
			c0.9,5.1,2,10.2,2.6,15.5c0.2,1.3,0.2,2.7,0.3,4c0,1.4,0,2.7-0.2,4.1c-0.3,2.8-1,5.6-2.4,8.1c-0.7,1.2-1.5,2.5-2.4,3.5
			c-0.9,1.1-1.9,2.2-3,3.1c-1.1,0.9-2.5,1.7-3.9,2.3c-1.4,0.5-2.9,0.8-4.5,0.9c-3.1,0.1-5.8-0.9-8.3-1.8c-1.2-0.4-2.4-0.9-3.6-1.3
			c-1.2-0.4-2.3-0.7-3.5-0.8c-2.4-0.4-4.8-0.3-7.2,0.2c-2.4,0.5-4.7,1.4-7,2.6l-0.8-1.2c2.1-1.7,4.5-3.1,7.1-4
			c2.6-0.9,5.5-1.2,8.3-1c5.7,0.5,10.5,3.6,14.9,3.5c2.2,0,4.3-0.9,6-2.3c0.9-0.7,1.7-1.5,2.5-2.5c0.8-1,1.4-2,2-2.9
			c2.2-4.1,2.5-9.1,2-14.2c-0.2-2.5-0.6-5.1-1-7.6l-1.2-7.7c-0.8-5.2-1.4-10.4-1.6-15.7c-0.2-5.3-0.1-10.6,0.5-15.8
			c0.3-2.6,0.6-5.2,1-7.8c0.4-2.6,1-5.2,1.6-7.7L430.4,321.5z"/>
	</g>
	<g>
		<path class="st2" d="M375.2,347.5c1.4,10.9,1.3,22.1-0.3,33.1c-0.4,2.7-0.9,5.5-1.5,8.2c-0.6,2.7-1.4,5.4-2.3,8.1
			c-1,2.7-2.1,5.3-3.7,7.8c-0.8,1.2-1.7,2.5-2.8,3.6c-1.1,1.1-2.4,2.1-3.7,2.9c-2.6,1.6-5.6,2.6-8.4,3.1c-0.7,0.1-1.4,0.2-2.1,0.3
			l-2.2,0.2c-0.7,0.1-1.4,0.1-2.2,0.1c-0.7,0-1.4,0.1-2.2,0c-5.8-0.1-11.4-1.5-16.7-3.3c-5.3-1.9-10.4-4.3-15.2-6.8l-7.3-3.8
			c-1.2-0.6-2.4-1.2-3.6-1.6c-1.2-0.4-2.4-0.7-3.4-0.7c-1,0-1.7,0.3-2.3,1c-0.5,0.7-0.9,1.8-1.2,3.1c-0.6,2.8-1.5,5.4-2.3,8.1
			c-0.9,2.6-1.8,5.2-2.6,7.8c-0.8,2.6-1.4,5.1-2,7.8c-1.3,5.4-2.8,10.9-5.7,16.1c-1.4,2.6-3.2,5-5.3,7.1c-2,2.1-4.3,4-7,5.5
			c-1.3,0.8-2.7,1.5-4.1,2c-0.7,0.3-1.5,0.5-2.2,0.7c-0.8,0.2-1.5,0.4-2.3,0.5c-0.4,0.1-0.8,0.1-1.2,0.2l-1.2,0.1
			c-0.8,0.1-1.6,0-2.4,0c-1.6-0.2-3.2-0.5-4.6-1.1c-2.8-1.1-5.3-2.6-7.7-4.1c-2.4-1.6-4.6-3.2-6.8-4.9c-8.9-6.6-16.8-14.4-24-22.7
			l0.8-0.7c7.3,8.1,15.7,15.2,24.8,21c2.3,1.5,4.6,2.8,7,4c2.4,1.1,4.9,2.1,7.3,2.6c1.2,0.3,2.3,0.4,3.4,0.4c0.6,0,1.1,0,1.7-0.1
			c0.6-0.1,1.2-0.2,1.7-0.3c1.2-0.2,2.3-0.6,3.4-1c1.1-0.4,2.2-1,3.3-1.6c2.1-1.2,4.1-2.8,5.9-4.6c1.8-1.7,3.3-3.7,4.7-5.8
			c2.7-4.3,4.4-9.3,5.9-14.5c0.8-2.6,1.5-5.3,2.5-8l2.9-7.7c0.9-2.5,1.8-5.1,2.4-7.7c0.3-1.3,0.7-3,1.9-4.5c0.6-0.7,1.4-1.3,2.2-1.7
			c0.9-0.4,1.8-0.6,2.7-0.6c1.7,0,3.2,0.4,4.6,0.9c1.4,0.5,2.7,1.1,3.9,1.7c2.5,1.2,4.9,2.5,7.3,3.7c4.9,2.4,9.8,4.5,14.9,6.1
			c5.1,1.6,10.3,2.6,15.5,2.6c0.6,0,1.3,0,1.9,0c0.6,0,1.3,0,1.9-0.1l1.9-0.2c0.6-0.1,1.3-0.2,2-0.3c2.5-0.4,4.8-1.2,6.9-2.4
			c4.2-2.3,6.7-7,8.6-11.9c2-4.9,3.2-10.2,4.3-15.5c1.1-5.3,1.8-10.7,2.2-16.1c0.2-2.7,0.4-5.4,0.5-8.1c0.1-2.7,0.1-5.4,0-8.2
			L375.2,347.5z"/>
	</g>
	<g>
		<path class="st2" d="M140.4,395.2c1.5,5.7,4.1,11,7.8,15.4c3.7,4.4,8.4,7.8,13.6,9.9c2.6,1.1,5.4,1.6,8.2,2l2.1,0.2
			c0.7,0,1.4,0,2.1,0c0.7,0,1.4-0.1,2.1-0.1c0.7-0.1,1.4-0.1,2.1-0.3c5.7-0.9,11.2-3.1,16.1-6.3l0.6,0.8c-4.5,4.2-10.1,7.2-16.2,8.6
			c-6.1,1.5-12.7,1-18.6-1.3c-5.9-2.2-11.2-6.2-14.9-11.3c-3.7-5.1-6-11.2-6.2-17.3L140.4,395.2z"/>
	</g>
	<g>
		<path class="st2" d="M399.8,147.6c5.5,8.9,10.5,18.1,14.9,27.6c4.5,9.5,8.4,19.2,11.6,29.3c0.8,2.5,1.4,5.1,1.8,7.9
			c0.4,2.7,0.4,5.5-0.4,8.3c-0.8,2.8-2.4,5.4-4.6,7.2c-2.2,1.9-4.8,3-7.4,3.8c-2.6,0.8-5.2,1.3-7.8,1.7c-2.6,0.4-5.3,0.6-8,0.5
			c-5.3-0.2-10.6-1.3-15.5-3.2l0.3-0.9c2.5,0.7,5,1.3,7.5,1.6c2.5,0.4,5.1,0.5,7.7,0.5c2.5-0.1,5.1-0.3,7.6-0.8
			c2.5-0.5,5.1-1.1,7.4-1.9c2.4-0.8,4.6-1.9,6.4-3.4c1.8-1.5,3-3.6,3.6-5.8c0.6-2.3,0.6-4.7,0.3-7.2c-0.3-2.5-0.9-4.9-1.7-7.4
			c-3.1-9.9-6.8-19.6-10.9-29.1c-4.2-9.5-8.8-18.9-13.7-28.1L399.8,147.6z"/>
	</g>
</g>
<g id="Layer_5">
	<path class="st4" d="M175.4,31.1"/>
	<path class="st4" d="M190.5,80.7c0.1,11.3-20.5,24-37,20.3c-4.6-0.6-6.9-7-7.8-15.8c1.6,0.1,3.3,0.2,4.9,0.2
		c12.9,0,24.7-4.7,34-12.6C188.3,76.8,190.4,77.5,190.5,80.7z"/>
	<path class="st5" d="M184.6,72.9c-9.2,7.9-21.1,12.6-34,12.6c-1.7,0-3.3-0.1-4.9-0.2c-0.4-4.4-0.5-9.4-0.3-14.6
		c2.3,0.4,4.7,0.6,7.1,0.6c9.2,0,17.8-2.8,24.9-7.5c1.2,1.8,2.4,3.4,3.4,4.8C182.2,70.4,183.5,71.8,184.6,72.9z"/>
	<path class="st6" d="M177.5,63.8c-7.2,4.7-15.7,7.5-24.9,7.5c-2.4,0-4.8-0.2-7.1-0.6c0.2-4.2,0.5-8.4,1-12.6
		c2.1,0.4,4.3,0.6,6.5,0.6c6.8,0,13.1-1.9,18.4-5.3C173.4,57.5,175.5,60.9,177.5,63.8z"/>
	<path class="st4" d="M171.4,53.4c-5.3,3.3-11.7,5.3-18.4,5.3c-2.2,0-4.4-0.2-6.5-0.6c0.4-3.8,0.9-7.6,1.5-11.2
		c1.6,0.3,3.3,0.5,5,0.5c5.2,0,10-1.6,14-4.3C168.4,46.9,169.9,50.3,171.4,53.4z"/>
	<path class="st4" d="M167,43c-4,2.8-8.8,4.3-14,4.3c-1.7,0-3.4-0.2-5-0.5c0.6-3.6,1.2-6.9,1.9-9.8c1,0.2,2,0.3,3.1,0.3
		c4.3,0,8.2-1.8,11-4.8C164.8,36.4,165.9,39.9,167,43z"/>
	<path class="st4" d="M163.9,32.6c-2.7,3-6.6,4.8-11,4.8c-1.1,0-2.1-0.1-3.1-0.3c0.1-0.6,0.3-1.2,0.4-1.7c3.3-13.7,6-15.4,7.4-15.5
		c2,0,4.3,3.3,5.1,7.3C163.1,29.1,163.5,30.9,163.9,32.6z"/>
	<path class="st4" d="M175.4,31.1"/>
	<linearGradient id="SVGID_1_" gradientUnits="userSpaceOnUse" x1="141.7661" y1="65.5064" x2="187.8663" y2="53.9209">
		<stop  offset="0" style="stop-color:#B8E1DB;stop-opacity:0"/>
		<stop  offset="0.3792" style="stop-color:#B7B488;stop-opacity:0.4888"/>
		<stop  offset="0.6477" style="stop-color:#B59B5C;stop-opacity:0.8349"/>
		<stop  offset="0.7758" style="stop-color:#B4924A"/>
	</linearGradient>
	<path class="st7" d="M190.5,80.7c0.1,11.3-20.5,24-37,20.3c-4.6-0.6-6.9-7-7.8-15.8c-0.4-4.4-0.5-9.4-0.3-14.6
		c0.2-4.2,0.5-8.4,1-12.6c0.4-3.8,0.9-7.6,1.5-11.2c0.6-3.6,1.2-6.9,1.9-9.8c0.1-0.6,0.3-1.2,0.4-1.7c3.3-13.7,6-15.4,7.4-15.5
		c2,0,4.3,3.3,5.1,7.3c0.3,1.9,0.7,3.7,1.2,5.4c0.9,3.8,2,7.3,3.1,10.5c1.4,3.9,2.9,7.3,4.4,10.3c2,4.1,4.1,7.5,6.1,10.4
		c1.2,1.8,2.4,3.4,3.4,4.8c1.3,1.8,2.6,3.2,3.7,4.3C188.3,76.8,190.4,77.5,190.5,80.7z"/>
	<g>
		<path class="st8" d="M190.5,80.7c0.1,11.3-20.5,24-37,20.3c-4.6-0.6-6.9-7-7.8-15.8c-0.4-4.4-0.5-9.4-0.3-14.6
			c0.2-4.2,0.5-8.4,1-12.6c0.4-3.8,0.9-7.6,1.5-11.2c0.6-3.6,1.2-6.9,1.9-9.8c0.1-0.6,0.3-1.2,0.4-1.7c3.3-13.7,6-15.4,7.4-15.5
			c2,0,4.3,3.3,5.1,7.3c0.3,1.9,0.7,3.7,1.2,5.4c0.9,3.8,2,7.3,3.1,10.5c1.4,3.9,2.9,7.3,4.4,10.3c2,4.1,4.1,7.5,6.1,10.4
			c1.2,1.8,2.4,3.4,3.4,4.8c1.3,1.8,2.6,3.2,3.7,4.3C188.3,76.8,190.4,77.5,190.5,80.7z"/>
		<path class="st8" d="M175.4,31.1"/>
		<path class="st8" d="M190.5,80.7c0.1,11.3-20.5,24-37,20.3c-4.6-0.6-6.9-7-7.8-15.8c1.6,0.1,3.3,0.2,4.9,0.2
			c12.9,0,24.7-4.7,34-12.6C188.3,76.8,190.4,77.5,190.5,80.7z"/>
		<path class="st9" d="M184.6,72.9c-9.2,7.9-21.1,12.6-34,12.6c-1.7,0-3.3-0.1-4.9-0.2c-0.4-4.4-0.5-9.4-0.3-14.6
			c2.3,0.4,4.7,0.6,7.1,0.6c9.2,0,17.8-2.8,24.9-7.5c1.2,1.8,2.4,3.4,3.4,4.8C182.2,70.4,183.5,71.8,184.6,72.9z"/>
		<path class="st10" d="M177.5,63.8c-7.2,4.7-15.7,7.5-24.9,7.5c-2.4,0-4.8-0.2-7.1-0.6c0.2-4.2,0.5-8.4,1-12.6
			c2.1,0.4,4.3,0.6,6.5,0.6c6.8,0,13.1-1.9,18.4-5.3C173.4,57.5,175.5,60.9,177.5,63.8z"/>
		<path class="st8" d="M171.4,53.4c-5.3,3.3-11.7,5.3-18.4,5.3c-2.2,0-4.4-0.2-6.5-0.6c0.4-3.8,0.9-7.6,1.5-11.2
			c1.6,0.3,3.3,0.5,5,0.5c5.2,0,10-1.6,14-4.3C168.4,46.9,169.9,50.3,171.4,53.4z"/>
		<path class="st8" d="M167,43c-4,2.8-8.8,4.3-14,4.3c-1.7,0-3.4-0.2-5-0.5c0.6-3.6,1.2-6.9,1.9-9.8c1,0.2,2,0.3,3.1,0.3
			c4.3,0,8.2-1.8,11-4.8C164.8,36.4,165.9,39.9,167,43z"/>
		<path class="st8" d="M163.9,32.6c-2.7,3-6.6,4.8-11,4.8c-1.1,0-2.1-0.1-3.1-0.3c0.1-0.6,0.3-1.2,0.4-1.7c3.3-13.7,6-15.4,7.4-15.5
			c2,0,4.3,3.3,5.1,7.3C163.1,29.1,163.5,30.9,163.9,32.6z"/>
		<path class="st8" d="M175.4,31.1"/>
	</g>
	<path class="st4" d="M332,31.1"/>
	<path class="st4" d="M317,80.7c-0.1,11.3,20.5,24,37,20.3c4.6-0.6,6.9-7,7.8-15.8c-1.6,0.1-3.3,0.2-4.9,0.2
		c-12.9,0-24.7-4.7-34-12.6C319.1,76.8,317,77.5,317,80.7z"/>
	<path class="st5" d="M322.9,72.9c9.2,7.9,21.1,12.6,34,12.6c1.7,0,3.3-0.1,4.9-0.2c0.4-4.4,0.5-9.4,0.3-14.6
		c-2.3,0.4-4.7,0.6-7.1,0.6c-9.2,0-17.8-2.8-24.9-7.5c-1.2,1.8-2.4,3.4-3.4,4.8C325.2,70.4,323.9,71.8,322.9,72.9z"/>
	<path class="st6" d="M329.9,63.8c7.2,4.7,15.7,7.5,24.9,7.5c2.4,0,4.8-0.2,7.1-0.6c-0.2-4.2-0.5-8.4-1-12.6
		c-2.1,0.4-4.3,0.6-6.5,0.6c-6.8,0-13.1-1.9-18.4-5.3C334,57.5,331.9,60.9,329.9,63.8z"/>
	<path class="st4" d="M336,53.4c5.3,3.3,11.7,5.3,18.4,5.3c2.2,0,4.4-0.2,6.5-0.6c-0.4-3.8-0.9-7.6-1.5-11.2c-1.6,0.3-3.3,0.5-5,0.5
		c-5.2,0-10-1.6-14-4.3C339.1,46.9,337.6,50.3,336,53.4z"/>
	<path class="st4" d="M340.4,43c4,2.8,8.8,4.3,14,4.3c1.7,0,3.4-0.2,5-0.5c-0.6-3.6-1.2-6.9-1.9-9.8c-1,0.2-2,0.3-3.1,0.3
		c-4.3,0-8.2-1.8-11-4.8C342.6,36.4,341.5,39.9,340.4,43z"/>
	<path class="st4" d="M343.5,32.6c2.7,3,6.6,4.8,11,4.8c1.1,0,2.1-0.1,3.1-0.3c-0.1-0.6-0.3-1.2-0.4-1.7c-3.3-13.7-6-15.4-7.4-15.5
		c-2,0-4.3,3.3-5.1,7.3C344.3,29.1,343.9,30.9,343.5,32.6z"/>
	<path class="st4" d="M332,31.1"/>
	
		<linearGradient id="SVGID_2_" gradientUnits="userSpaceOnUse" x1="-29.8767" y1="65.5064" x2="16.2236" y2="53.9209" gradientTransform="matrix(-1 0 0 1 335.7825 0)">
		<stop  offset="0" style="stop-color:#B8E1DB;stop-opacity:0"/>
		<stop  offset="0.3792" style="stop-color:#B7B488;stop-opacity:0.4888"/>
		<stop  offset="0.6477" style="stop-color:#B59B5C;stop-opacity:0.8349"/>
		<stop  offset="0.7758" style="stop-color:#B4924A"/>
	</linearGradient>
	<path class="st11" d="M317,80.7c-0.1,11.3,20.5,24,37,20.3c4.6-0.6,6.9-7,7.8-15.8c0.4-4.4,0.5-9.4,0.3-14.6
		c-0.2-4.2-0.5-8.4-1-12.6c-0.4-3.8-0.9-7.6-1.5-11.2c-0.6-3.6-1.2-6.9-1.9-9.8c-0.1-0.6-0.3-1.2-0.4-1.7c-3.3-13.7-6-15.4-7.4-15.5
		c-2,0-4.3,3.3-5.1,7.3c-0.3,1.9-0.7,3.7-1.2,5.4c-0.9,3.8-2,7.3-3.1,10.5c-1.4,3.9-2.9,7.3-4.4,10.3c-2,4.1-4.1,7.5-6.1,10.4
		c-1.2,1.8-2.4,3.4-3.4,4.8c-1.3,1.8-2.6,3.2-3.7,4.3C319.1,76.8,317,77.5,317,80.7z"/>
	<g>
		<path class="st8" d="M316.8,80.7c-0.1,11.3,20.5,24,37,20.3c4.6-0.6,6.9-7,7.8-15.8c0.4-4.4,0.5-9.4,0.3-14.6
			c-0.2-4.2-0.5-8.4-1-12.6c-0.4-3.8-0.9-7.6-1.5-11.2c-0.6-3.6-1.2-6.9-1.9-9.8c-0.1-0.6-0.3-1.2-0.4-1.7
			c-3.3-13.7-6-15.4-7.4-15.5c-2,0-4.3,3.3-5.1,7.3c-0.3,1.9-0.7,3.7-1.2,5.4c-0.9,3.8-2,7.3-3.1,10.5c-1.4,3.9-2.9,7.3-4.4,10.3
			c-2,4.1-4.1,7.5-6.1,10.4c-1.2,1.8-2.4,3.4-3.4,4.8c-1.3,1.8-2.6,3.2-3.7,4.3C318.9,76.8,316.8,77.5,316.8,80.7z"/>
		<path class="st8" d="M331.8,31.1"/>
		<path class="st8" d="M316.8,80.7c-0.1,11.3,20.5,24,37,20.3c4.6-0.6,6.9-7,7.8-15.8c-1.6,0.1-3.3,0.2-4.9,0.2
			c-12.9,0-24.7-4.7-34-12.6C318.9,76.8,316.8,77.5,316.8,80.7z"/>
		<path class="st9" d="M322.7,72.9c9.2,7.9,21.1,12.6,34,12.6c1.7,0,3.3-0.1,4.9-0.2c0.4-4.4,0.5-9.4,0.3-14.6
			c-2.3,0.4-4.7,0.6-7.1,0.6c-9.2,0-17.8-2.8-24.9-7.5c-1.2,1.8-2.4,3.4-3.4,4.8C325,70.4,323.8,71.8,322.7,72.9z"/>
		<path class="st10" d="M329.8,63.8c7.2,4.7,15.7,7.5,24.9,7.5c2.4,0,4.8-0.2,7.1-0.6c-0.2-4.2-0.5-8.4-1-12.6
			c-2.1,0.4-4.3,0.6-6.5,0.6c-6.8,0-13.1-1.9-18.4-5.3C333.8,57.5,331.7,60.9,329.8,63.8z"/>
		<path class="st8" d="M335.8,53.4c5.3,3.3,11.7,5.3,18.4,5.3c2.2,0,4.4-0.2,6.5-0.6c-0.4-3.8-0.9-7.6-1.5-11.2
			c-1.6,0.3-3.3,0.5-5,0.5c-5.2,0-10-1.6-14-4.3C338.9,46.9,337.4,50.3,335.8,53.4z"/>
		<path class="st8" d="M340.2,43c4,2.8,8.8,4.3,14,4.3c1.7,0,3.4-0.2,5-0.5c-0.6-3.6-1.2-6.9-1.9-9.8c-1,0.2-2,0.3-3.1,0.3
			c-4.3,0-8.2-1.8-11-4.8C342.4,36.4,341.4,39.9,340.2,43z"/>
		<path class="st8" d="M343.3,32.6c2.7,3,6.6,4.8,11,4.8c1.1,0,2.1-0.1,3.1-0.3c-0.1-0.6-0.3-1.2-0.4-1.7c-3.3-13.7-6-15.4-7.4-15.5
			c-2,0-4.3,3.3-5.1,7.3C344.1,29.1,343.7,30.9,343.3,32.6z"/>
		<path class="st8" d="M331.8,31.1"/>
	</g>
</g>
<g id="Layer_9">
</g>
<g id="Gura">
	<g>
		
			<image style="overflow:visible;" width="1031" height="322" xlink:href="67B82836.png"  transform="matrix(0.24 0 0 0.24 129.2775 227.8)">
		</image>
	</g>
	<g>
		
			<image style="overflow:visible;" width="328" height="321" xlink:href="67B82834.png"  transform="matrix(0.24 0 0 0.24 298.0579 228.7027)">
		</image>
	</g>
	<g>
		
			<image style="overflow:visible;" width="326" height="321" xlink:href="67B8283A.png"  transform="matrix(0.24 0 0 0.24 129.9975 228.52)">
		</image>
	</g>
	<path class="st12" d="M337.9,254.8c-3.8-0.6-9.1-0.8-17-0.8c-5.2,0-11.3,0.1-17.8,0.2c-4,0.1-8.3,0.1-12.8,0.2
		c-4.5,0.1-9.2,0.1-14,0.1c-7.6,0-14.5-0.1-21.2-0.3c-18.3-0.5-34.2-0.8-47.2-0.8c-12.7,0-22.6,0.3-29.7,0.8
		c-9.9,0.7-17.6,1.8-20.4,8.8c-1.6,4.1-0.5,8.8,2.8,11.9c5.6,5.3,15.7,6.1,76.8,6.1h17.4l21.8,0c17.1,0,34.9,0,47.3-0.5
		c6.5-0.3,11.3-0.6,14.7-1.1c11.2-1.6,13.5-7.3,13.5-11.8C352.1,263.6,350.2,256.6,337.9,254.8z M254.7,271
		c-48.2,0-83.4,0.3-87.3-3.4c-4.9-4.6,36.4-4.9,87.3-3.4c48.2,1.4,87.3-3.1,87.3,3.4C342.1,271.3,303,271,254.7,271z"/>
</g>
<g id="DInti">
	<path class="st13" d="M182.7,263.9c-12.1,0.6-18.6,1.8-16.5,3.7c1.4,1.3,6.6,2.1,14.9,2.6c7.3,0.3,18.9,0.6,33.3,0.8
		c12,0.1,19.9,0.1,39.1,0c26,0,28.7,0.1,39.5,0c14.2-0.1,25.7-0.4,33-0.7"/>
	<path class="st14" d="M323.7,264.1C323.8,264.1,323.8,264.1,323.7,264.1c10.8,0.2,17.1,1,17.1,3.6c0,1.5-5.9,2.3-16,2.8"/>
	<path class="st15" d="M212.1,263.1c12.4,0.1,26.5,0.5,41.5,1.1c15,0.6,29.2,0.4,41.6,0.2"/>
</g>
<g id="Dinti">
	<path class="st16" d="M324.8,270.4c-8.2,0.4-19.1,0.5-31.8,0.6c-0.3-0.6-0.3-1.2,0-1.9l13.5-31c1.1-2.6,4.7-2.6,5.9,0l11.3,25.8
		l0.1,0.2l1.5,3.5C325.8,268.6,325.5,269.7,324.8,270.4z"/>
	<path class="st17" d="M324.8,270.4c-1.4,0.1-2.8,0.1-4.4,0.2c-7.5,0.3-16.8,0.4-27.4,0.4c-0.3-0.6-0.3-1.2,0-1.9l13.5-31
		c0.3-0.8,0.9-1.4,1.6-1.7c1.5-0.7,3.5-0.1,4.2,1.6l11.3,25.8l0.1,0.2l1.5,3.5C325.8,268.6,325.5,269.7,324.8,270.4z"/>
	<path class="st18" d="M324.8,270c-1.4,0.1-2.8,0.1-4.4,0.2c-1.8-4.6-4-11-7.2-19.8c-1.9-5.4-3.7-10.3-5.1-14.3
		c1.5-0.7,3.5-0.1,4.2,1.6l11.3,25.8l0.1,0.2l1.5,3.5C325.8,268.2,325.5,269.3,324.8,270z"/>
	<path class="st16" d="M214.1,270.6c-13.6-0.1-25-0.3-33.3-0.8c-0.5-0.7-0.6-1.6-0.3-2.4l1.8-3.9l12.5-26.7c1-2.1,3.9-2.1,4.9,0
		l14.5,31.5C214.5,269.2,214.4,270,214.1,270.6z"/>
	<path class="st16" d="M205.4,270.6c-9.8-0.1-18.2-0.3-24.6-0.7c-0.5-0.7-0.7-1.6-0.3-2.4l1.8-3.9l12.5-26.7
		c0.1-0.2,0.2-0.4,0.4-0.6c1.7,5.6,3.4,11.5,4.7,15.7C201.4,257.1,203.5,264.1,205.4,270.6z"/>
	<path class="st18" d="M214.1,270.6c-3,0-5.9,0-8.6-0.1c-1.9-6.4-4-13.4-5.5-18.6c-1.3-4.2-3-10.1-4.7-15.7c1.2-1.4,3.6-1.2,4.5,0.6
		l14.5,31.5C214.5,269.2,214.4,270,214.1,270.6z"/>
	<path class="st17" d="M214.1,270.6c-3,0-5.9,0-8.6-0.1c-9.8-0.1-18.2-0.3-24.6-0.7c-0.5-0.7-0.7-1.6-0.3-2.4l1.8-3.9l12.5-26.7
		c0.1-0.2,0.2-0.4,0.4-0.6c1.2-1.4,3.6-1.2,4.5,0.6l14.5,31.5C214.5,269.2,214.4,270,214.1,270.6z"/>
	<path class="st16" d="M215,271.3"/>
</g>
<g id="OCHISORI">
	<ellipse cx="195.2" cy="168.1" rx="18.2" ry="25.5"/>
	<path class="st19" d="M213.4,168.1c0,0.1,0,0.3,0,0.5c-0.2-13.4-8-24.1-17.5-24.1c-9.7,0-17.5,11-17.5,24.6
		c0,13.4,7.7,24.3,17.2,24.6c-0.1,0-0.2,0-0.3,0c-10,0-18.2-11.4-18.2-25.5s8.1-25.5,18.2-25.5C205.3,142.6,213.4,154,213.4,168.1z"
		/>
	<ellipse cx="316" cy="168.1" rx="18.2" ry="25.5"/>
	<path class="st19" d="M334.2,168.1c0,0.1,0,0.3,0,0.5c-0.2-13.4-8-24.1-17.5-24.1c-9.7,0-17.5,11-17.5,24.6
		c0,13.4,7.7,24.3,17.2,24.6c-0.1,0-0.2,0-0.3,0c-10,0-18.2-11.4-18.2-25.5s8.1-25.5,18.2-25.5C326.1,142.6,334.2,154,334.2,168.1z"
		/>
</g>
</svg>
