<svg height="512" viewBox="0 0 64 64" width="512" xmlns="http://www.w3.org/2000/svg"><g id="Filled_outline" data-name="Filled outline"><path d="m3 32.216a12.976 12.976 0 0 0 4 9.067l21 18.135a5.849 5.849 0 0 0 8 0l21-18.135a12.976 12.976 0 0 0 4-9.067 29.109 29.109 0 0 0 -29-29.216 29.109 29.109 0 0 0 -29 29.216z" fill="#f9bb4b"/><path d="m14 19h3a12 12 0 0 1 12 12 0 0 0 0 1 0 0h-15a6 6 0 0 1 -6-6 6 6 0 0 1 6-6z" fill="#f4f4e6"/><path d="m41 19h15a0 0 0 0 1 0 0 12 12 0 0 1 -12 12h-3a6 6 0 0 1 -6-6 6 6 0 0 1 6-6z" fill="#f4f4e6" transform="matrix(-1 0 0 -1 91 50)"/><circle cx="18" cy="27" fill="#143441" r="4"/><circle cx="46" cy="27" fill="#143441" r="4"/><path d="m28 35h2v2h-2z"/><path d="m34 35h2v2h-2z"/><path d="m25 45h14v2h-14z"/><path d="m32 2a30.143 30.143 0 0 0 -30 30.216 14.048 14.048 0 0 0 4.346 9.825l20.945 18.082a6.846 6.846 0 0 0 9.363.052l21.01-18.143a14.042 14.042 0 0 0 4.336-9.816 30.143 30.143 0 0 0 -30-30.216zm24.346 38.527-21.055 18.186a4.638 4.638 0 0 1 -3.291 1.287 4.686 4.686 0 0 1 -3.346-1.339l-20.99-18.125a12.074 12.074 0 0 1 -3.664-8.32 28 28 0 1 1 56 0 12.069 12.069 0 0 1 -3.654 8.311z"/><path d="m30 31a13.015 13.015 0 0 0 -13-13h-3a7 7 0 0 0 0 14h15a1 1 0 0 0 1-1zm-12-1a3 3 0 1 1 3-3 3 3 0 0 1 -3 3zm3.974 0a4.948 4.948 0 0 0 1.026-3 5 5 0 0 0 -10 0 4.948 4.948 0 0 0 1.026 3h-.026a5 5 0 0 1 0-10h3a11.015 11.015 0 0 1 10.955 10z"/><path d="m47 18a13.015 13.015 0 0 0 -13 13 1 1 0 0 0 1 1h15a7 7 0 0 0 0-14zm-1 12a3 3 0 1 1 3-3 3 3 0 0 1 -3 3zm9-5a5.006 5.006 0 0 1 -5 5h-.026a4.948 4.948 0 0 0 1.026-3 5 5 0 0 0 -10 0 4.948 4.948 0 0 0 1.026 3h-5.981a11.015 11.015 0 0 1 10.955-10h3a5.006 5.006 0 0 1 5 5z"/><path d="m49.292 15.707 1.416-1.414a28.293 28.293 0 0 0 -18.659-8.293l-.1 2a26.272 26.272 0 0 1 17.341 7.708z"/><path d="m28 6h2v2h-2z"/><path d="m25.433 35.9-.866-1.8a12.3 12.3 0 0 0 -6.535 7.651 11.277 11.277 0 0 0 0 5.489l1.942-.478a9.28 9.28 0 0 1 0-4.511 10.269 10.269 0 0 1 5.459-6.351z"/><path d="m39.433 34.1-.866 1.8a10.269 10.269 0 0 1 5.465 6.349 9.28 9.28 0 0 1 0 4.511l1.942.478a11.277 11.277 0 0 0 0-5.489 12.3 12.3 0 0 0 -6.541-7.649z"/><path d="m30 49h4v2h-4z"/><path d="m17 26h2v2h-2z"/><path d="m45 26h2v2h-2z"/></g></svg>