<?xml version="1.0" encoding="utf-8"?>
<!-- Generator: Adobe Illustrator 23.0.2, SVG Export Plug-In . SVG Version: 6.00 Build 0)  -->
<svg version="1.1" id="Layer_1" xmlns="http://www.w3.org/2000/svg" xmlns:xlink="http://www.w3.org/1999/xlink" x="0px" y="0px"
	 viewBox="0 0 612 792" style="enable-background:new 0 0 612 792;" xml:space="preserve">
<style type="text/css">
	.st0{fill:#FFFFFF;}
	.st1{fill:#7DC243;}
	.st2{fill:#8AC649;}
	.st3{opacity:0.9;fill:#55833B;}
	.st4{fill:#E5F0D5;}
	.st5{opacity:0.01;fill:#010101;}
	.st6{opacity:0.38;fill:none;stroke:#010101;stroke-width:5.1777;stroke-miterlimit:10;}
	.st7{fill:#010101;}
</style>
<g>
	<path class="st0" d="M334.16,194.25c-4.37,0.74-12.89,4.1-23.02,10.91c-15.42,10.36-16.5,26.08-17.74,30.3
		c4.41-5.75,12.8-19.28,20.38-26C321.23,202.85,328.01,197.91,334.16,194.25z"/>
	<path id="baza_PRIMARY_COLOR" class="st1" d="M344.19,55.55C447.27,55.29,531,138.44,537.2,204.94
		c6.61,70.95-57.73,79.76-61.69,171.86c-2.25,52.23,16.06,92.39,19.5,99.81c25.78,55.53,72.29,76.39,90.67,85.71
		c4.57,2.93,10.94,8.18,12.34,15.86c2.97,16.29-18.64,30.92-29.08,36.13c-4.23,2.11-28.08,14.17-44.95,4.41
		c-23.74-13.74-4.21-53.62-26.44-96.94c-19.05-37.14-63.05-65.62-83.72-55.52c-22.58,11.02-25.67,72.11-4.41,116.33
		c18.98,39.47,41.66,52.42,46.6,81.08c0.33,23.47-13.14,27.09-31.4,31.73c-27.21,6.91-40.65,6.94-47.59,1.98
		c-24.15-17.25-3.99-64.88-6.39-118.32c-1.64-36.54-14.19-87.37-33.49-89.89c-19.44-2.54-44,45.54-58.17,89.89
		c-25.23,78.99-6.39,95.51-23.24,116.99c-11.27,14.36-22.99,10.67-39.66,4.96c-13.75-4.72-26.8-16.86-26.11-31.73
		c1.32-28.42,22.58-42.53,54.64-93.75c18.91-30.22,44.63-72.99,29.08-98.71c-10.12-16.73-30.83-18.55-46.38-17.74
		c-8.29,0.44-36.45,0.78-92.87,65.33c-15.02,17.18-34.62,41.37-55.19,72.49c-13.56,16.59-22.09,18.11-30.41,18.51
		c-18.05,0.86-38.59-12.07-39.99-38.01c-3.3-53.21,150.37-64.45,201.38-179.02c21.46-69.78-72.96-111.75-58.17-198.3
		C164.45,127.62,247.97,55.8,344.19,55.55z"/>
	<path class="st2" d="M356.4,58.36c12.89-0.05,25.42,1.24,37.59,3.62c-15.9-4.19-32.57-6.47-49.81-6.42
		c-96.2,0.26-179.72,72.07-192.09,144.51c-14.81,86.57,79.58,128.51,58.15,198.31C159.23,512.96,5.56,524.2,8.87,577.42
		c1.16,21.63,15.6,34.16,30.85,37.24c0.37-0.49,0.84-0.87,1.42-1.15c-10.71-5.78-19.22-16.95-20.1-33.29
		c-3.31-53.23,168.02-68.6,201.1-192.4c15.9-59.65-72.7-98.38-57.89-184.95C176.63,130.43,260.15,58.56,356.4,58.36z"/>
	<path class="st2" d="M228.95,704.05c-0.24-0.08-0.46-0.15-0.7-0.24c-13.77-4.71-26.82-16.88-26.1-31.74
		c1.29-28.43,22.57-42.51,54.62-93.77c18.9-30.19,44.63-72.95,29.1-98.69c-6.89-11.39-18.74-15.84-30.45-17.29
		c7.25,2.64,13.77,7.09,18.23,14.5c15.59,25.73-10.15,68.5-29.05,98.69c-32.05,51.26-53.33,65.34-54.68,93.77
		c-0.67,14.86,12.37,27.03,26.15,31.74c4.32,1.47,8.26,2.75,11.98,3.68C228.37,704.45,228.66,704.25,228.95,704.05z"/>
	<path class="st2" d="M390.26,700.86c-6.01-0.16-10.25-1.35-13.25-3.47c-24.13-17.29-3.99-64.93-6.37-118.36
		c-1.45-31.84-11.18-74.66-26.46-86.68c1.76-0.47,3.47-0.62,5.13-0.41c19.31,2.54,31.89,53.38,33.5,89.89
		c2.43,53.43-17.76,101.07,6.42,118.36C389.54,700.4,389.9,700.65,390.26,700.86z"/>
	<path class="st2" d="M537.98,622.42c-4.87-0.16-9.68-1.19-14.03-3.73c-23.71-13.72-4.19-53.59-26.41-96.93
		c-13.15-25.68-38.26-47.17-59.29-54.68c22.63,1.71,55.61,26.61,71.45,57.47c22.26,43.34,2.69,83.21,26.46,96.93
		C536.74,621.85,537.36,622.16,537.98,622.42z"/>
	<path class="st3" d="M573.87,614.24c-3.52,1.76-20.5,10.35-35.83,7.66c10.87-1.6,20.4-6.42,22.94-7.66
		c10.41-5.18,32.05-19.83,29.05-36.14c-1.4-7.66-7.77-12.89-12.32-15.84c-18.38-9.32-64.88-30.18-90.66-85.68
		c-3.42-7.4-21.75-47.58-19.52-99.82c3.99-92.1,68.35-100.91,61.72-171.84c-6.06-64.98-86.21-145.9-186.14-149.26
		c1.97-0.05,3.99-0.1,6.01-0.1c103.09-0.26,186.81,82.89,193.03,149.37c6.58,70.93-57.73,79.73-61.72,171.84
		c-2.23,52.24,16.05,92.42,19.52,99.82c25.79,55.5,72.28,76.37,90.66,85.68c4.56,2.95,10.92,8.18,12.32,15.84
		C605.92,594.41,584.28,609.06,573.87,614.24z"/>
	<path class="st3" d="M226.34,459.11c-9.37,0.52-37.49,3.11-91.9,65.29c-15.02,17.19-34.64,41.37-55.19,72.49
		c-13.57,16.62-22.06,18.12-30.39,18.54c-2.54,0.1-5.18-0.05-7.77-0.47c6.89-1.19,14.45-4.82,25.27-18.07
		c20.61-31.12,40.18-55.3,55.19-72.49c56.44-64.51,84.6-64.88,92.89-65.34C218.15,458.85,222.19,458.85,226.34,459.11z"/>
	<path class="st3" d="M328.91,490.8c-17.71,8.91-37.69,50.02-49.91,88.23c-25.27,79.01-6.42,95.53-23.25,117.02
		c-7.77,9.89-15.74,11.18-25.37,9.16c4.35-1.19,8.44-4.04,12.48-9.16c16.83-21.49-2.02-38,23.25-117.02
		c14.14-44.32,38.73-92.42,58.15-89.89C325.85,489.35,327.41,489.92,328.91,490.8z"/>
	<path class="st3" d="M409.42,582.6c-21.28-44.22-18.17-105.31,4.4-116.34c1.19-0.57,2.43-1.04,3.78-1.35
		c-6.37-1.24-12.06-0.88-16.67,1.35c-22.58,11.03-25.68,72.13-4.4,116.34c18.95,39.45,41.63,52.4,46.6,81.08
		c0.31,23.45-13.15,27.08-31.43,31.69c-6.39,1.64-11.97,2.87-16.91,3.74c0.17,0.51,0.27,1.04,0.37,1.57
		c7.38-0.43,16.92-2.11,29.43-5.31c18.28-4.61,31.74-8.23,31.43-31.69C451.05,635,428.37,622.06,409.42,582.6z"/>
	<path class="st4" d="M232.92,223.94c2.33-49.25,65.91-85.26,119.31-85.54c53.68-0.28,118.74,35.41,120.96,85.87
		c2.25,51.23-61.29,94.82-117.99,95.66C296.11,320.81,230.49,275.48,232.92,223.94z"/>
	<path class="st5" d="M355.21,326.1c-59.08,0.93-124.73-44.99-122.3-97.13c0-0.26,0-0.47,0.05-0.72
		c2.17,49.91,65.24,92.53,122.25,91.7c54.62-0.88,115.57-41.84,117.95-91.23c0.05,0.21,0.05,0.36,0.05,0.57
		C475.44,281.15,411.91,325.27,355.21,326.1z"/>
	<path class="st6" d="M473.15,226.63c-2.38,49.4-63.32,90.35-117.95,91.23c-57.01,0.83-120.07-41.78-122.25-91.7
		c2.9-49.5,66.12-85.59,119.24-85.9C405.69,140.01,470.51,175.89,473.15,226.63z"/>
	<path class="st7" d="M350.25,185.44c30.48-0.39,67.46,19.68,67.75,45.28c0.27,24.46-33.06,45.75-62.13,46.6
		c-33.66,0.98-70.75-25.16-68.74-50.9C288.95,203,322.71,185.79,350.25,185.44z"/>
</g>
</svg>
