<svg width="18" height="10" viewBox="0 0 18 10" fill="none" xmlns="http://www.w3.org/2000/svg">
<path d="M8.99998 8.99998C8.70791 9.00055 8.42487 8.89883 8.19998 8.71248L0.699979 2.46248C0.444708 2.25031 0.284177 1.94542 0.253702 1.61488C0.223228 1.28435 0.325305 0.955249 0.537478 0.699978C0.749652 0.444707 1.05454 0.284177 1.38507 0.253702C1.71561 0.223228 2.04471 0.325305 2.29998 0.537478L8.99998 6.13748L15.7 0.737479C15.8278 0.633646 15.975 0.556107 16.1329 0.509317C16.2908 0.462527 16.4564 0.44741 16.6202 0.464834C16.784 0.482258 16.9427 0.531879 17.0873 0.610846C17.2318 0.689814 17.3593 0.79657 17.4625 0.924978C17.577 1.0535 17.6637 1.20429 17.7171 1.36788C17.7706 1.53147 17.7898 1.70435 17.7733 1.87568C17.7569 2.04701 17.7053 2.2131 17.6217 2.36354C17.5381 2.51399 17.4243 2.64555 17.2875 2.74998L9.78748 8.78748C9.55612 8.94437 9.27885 9.01919 8.99998 8.99998Z" fill="black"/>
</svg>
