<?xml version="1.0" encoding="utf-8"?>
<!-- Generator: Adobe Illustrator 23.0.2, SVG Export Plug-In . SVG Version: 6.00 Build 0)  -->
<svg version="1.1" id="Layer_1" xmlns="http://www.w3.org/2000/svg" xmlns:xlink="http://www.w3.org/1999/xlink" x="0px" y="0px"
	 viewBox="0 0 540 450.5" style="enable-background:new 0 0 540 450.5;" xml:space="preserve">
<style type="text/css">
	.st0{opacity:0.66;fill:#FBF2E1;stroke:#0B0A07;stroke-width:3.36;stroke-miterlimit:10;}
	.st1{fill:none;stroke:#0B0A07;stroke-width:3.36;stroke-miterlimit:10;}
	.st2{fill:none;stroke:#F2E6CE;stroke-width:3.1237;stroke-miterlimit:10;}
	.st3{fill:#D770AC;}
	.st4{opacity:0.49;fill:#F8E5F0;}
	.st5{fill:#F7E7F1;stroke:#0A0508;stroke-width:3.36;stroke-miterlimit:10;}
	.st6{fill:none;stroke:#000000;stroke-width:3.36;stroke-miterlimit:10;}
</style>
<g>
	<path class="st0" d="M299.3,108c-64-11.3-125.3,31.7-136.6,95.7c-11.3,64,31.7,125.3,95.7,136.6c64,11.3,125.3-31.7,136.5-95.7
		S363.3,119.3,299.3,108z M260.8,327c-56.9-10-94.8-64.2-84.8-121c10-56.8,64.1-94.8,121-84.8c56.8,10,94.8,64.1,84.8,121
		C371.8,299.1,317.6,337,260.8,327z"/>
	<path class="st1" d="M299.3,108c-64-11.3-125.3,31.7-136.6,95.7c-11.3,64,31.7,125.3,95.7,136.6c64,11.3,125.3-31.7,136.5-95.7
		S363.3,119.3,299.3,108z M260.8,327c-56.9-10-94.8-64.2-84.8-121c10-56.8,64.1-94.8,121-84.8c56.8,10,94.8,64.1,84.8,121
		C371.8,299.1,317.6,337,260.8,327z"/>
	<circle class="st2" cx="278.9" cy="224.1" r="104.5"/>
	<path class="st2" d="M381.8,242.2c-10,56.9-64.2,94.8-121,84.8c-56.9-10-94.8-64.2-84.8-121c10-56.8,64.1-94.8,121-84.8
		C353.8,131.2,391.7,185.4,381.8,242.2z"/>
	<circle class="st2" cx="278.9" cy="224.1" r="104.5"/>
	<path class="st3" d="M381.8,242.2c-10,56.9-64.2,94.8-121,84.8c-56.9-10-94.8-64.2-84.8-121c10-56.8,64.1-94.8,121-84.8
		C353.8,131.2,391.7,185.4,381.8,242.2z"/>
	<path class="st4" d="M263.5,143.8c12.2-6.8,51.7-3.9,77.4,22.3c26.8,27.4,33,73.7,20.5,81.4c-15.6,9.7-57.9-43.6-61.8-48
		C289.4,188.1,254.9,156.3,263.5,143.8z"/>
	<path class="st4" d="M208.1,245.6c2.2-0.7,4.6,18.5,21.2,34.5c22.8,22,54.9,21.6,54.4,27.6c-0.3,3.2-9.4,4.7-11.3,5
		c-19,3.1-38.3-8-49.6-21.5C206.5,271.8,205.6,246.4,208.1,245.6z"/>
	<path class="st5" d="M180.1,160.3c-6.6-0.3-15.1-1.8-20.4-8c-9.3-11,0.3-26.3-8.7-39.8c-5-7.6-12.9-10.1-25.4-14.1
		c-24.4-7.7-35.9-0.1-55.9-9c-8-3.5-13.8-8.1-17.2-11.1c1-0.5,2-1.1,2.9-1.8c6.3-4.6,9.7-11.6,13-23c1.6-5.5,3.2-12.1,5-20
		c4-16.7,4.9-29.3,6.9-29.3c2.3,0.1-1.2,16.8,7.5,26.6c13.2,14.8,37.6-4.8,60.4,8c22.1,12.3,36.1,51.1,27.5,76.3
		c-1.9,5.6-6.1,13.9-3,16.9c4.5,4.3,28.9-6.8,32.3-3.6C208.5,131.5,190.1,146.4,180.1,160.3z"/>
	<path class="st5" d="M178.3,160.3c-9.4,12.9-12.6,45.2-18,43c-3.6-1.4-11.8-30.3-12.1-31.2c-1.5-4.3-0.8-6-2.4-10.9
		c-0.6-1.6-2.6-7.4-5.3-9.6c-6.2-5-20.2,5.3-32.5,10.8c-25.4,11.3-57.4,8.2-77.9-5c-13.3-8.5-21.8-21.3-24-32.9
		c-0.7-3.5-1.5-8.3,1.2-12c5-6.8,17.2-2.7,19.8-7.9c2.6-5.2-8.4-11.8-6.5-17.7c2.3-6.9,18.7-1.3,32.2-8.6c3.4,3,9.2,7.6,17.3,11.2
		c20.1,8.9,31.7,1.3,56.2,9c12.6,3.9,20.5,6.4,25.5,14.1c9,13.6-0.6,28.9,8.8,39.9C165.7,158.7,171.7,160,178.3,160.3z"/>
	<path class="st5" d="M534.6,325.7c0.2,2.6-18.6,1.7-25.5,12.9c-3.2,5.3-1.2,8.9-5.2,13c-5.3,5.4-12.8,2.9-17.7,5
		c-5.5,2.4-9.8,11.4-8.6,36.1c0.4,8.1-6.6,14.4-14.7,13.7c-0.9-0.1-1.7,0-2.3,0.2c-1.9,0.6-2.5,3.2-2.6,7.4
		c-0.1,3.2,0.1,7.3,0.2,12.2c0.1,9.5,0.2,14.3-0.8,15.3c-5.6,5.7-35.8-2.6-51.4-24.7c-16.4-23.2-8.2-49.7-23.8-89.5
		c-2.1-5.5-6.7-16.4-13.8-16.9c-6.2-0.5-14.4,8.6-15.1,8.1c4.8-7,21.9-28,22.5-27.5c0.2,0.1,14.6-28.3,15.7-26.4
		c1.6,2.6,9,10.1,12.3,9.1c29.2-8.8,43.7-13.2,50.4-12.6c19,1.7,40.2,20.9,47.6,39.7c2.2,5.6,3.7,12.4,10.3,17.5
		C521.6,325.6,534.4,323.5,534.6,325.7z"/>
	<path class="st6" d="M68.4,53.5c2.3,2.4,6.1,5.8,11.2,9c20.5,12.7,33.1,3.2,50.9,12.4c13.1,6.8,26.3,22.3,29.7,39.2
		c1.9,9.4,0.4,17.6,6.8,25.6c4.7,5.8,20.1,1.3,24.8,2.6"/>
	<path class="st6" d="M27,104.6c6.2,5.4,24.2,21.5,46,25.5c22.5,4.2,33.8-9.2,51.5-5.8c11.6,2.3,26.4,23.3,42.1,57"/>
	<path class="st5" d="M506.9,339c-7.7-4.2-18.5-11.4-27.6-23.6c-9.5-12.7-8.1-18.6-15.4-22.7c-14.4-8.2-29.6,9.4-50.5,4.6
		c-8.9-2-18.7-8.1-28.1-22.4"/>
	<path class="st5" d="M476.2,379.8c-16.3-3.9-24.3-11.1-28.6-17c-7.6-10.5-4.9-19-13.6-26.6c-8-6.8-15.4-4.2-25.8-7.8
		c-9.5-3.3-21.4-11.8-31.6-34.7"/>
	<path class="st5" d="M457.9,414.1c-5.8-2.9-13.8-7.3-22.8-13.5c-11.1-7.6-16.7-11.5-21.5-17.9c-4.6-6.2-3.5-7.9-12.1-30
		c-4.1-10.5-6.2-15.8-9.4-22.1c-6.3-12.4-12.6-20.7-20.7-27.4c-0.9-0.7-1.6-1.3-2.1-1.7"/>
</g>
</svg>
