<svg width="48" height="44" viewBox="0 0 48 44" fill="none" xmlns="http://www.w3.org/2000/svg">
<path opacity="0.72" d="M23.6262 7.5063C23.1906 6.89211 19.3676 1.30121 13.242 1.42766C6.33402 1.57217 1.4353 7.19017 0.955212 12.9617C0.706275 15.9965 1.7198 19.8803 2.86669 22.1384C8.02324 32.2995 17.4562 38.3059 23.6974 42.2259C29.4851 38.342 36.2687 34.8918 42.8299 25.0648C43.3189 24.3332 43.7635 23.5564 44.1457 22.7616C46.7685 17.3333 46.3862 13.8288 46.1906 12.6095C45.3193 7.23533 40.7584 1.32831 34.1527 1.26508C27.9826 1.19282 24.0174 6.92824 23.6262 7.5063Z" fill="#C4BFC0" stroke="url(#paint0_linear)" stroke-width="1.35087" stroke-miterlimit="10"/>
<defs>
<linearGradient id="paint0_linear" x1="23.6262" y1="0.451384" x2="23.6262" y2="43.1782" gradientUnits="userSpaceOnUse">
<stop offset="0.0139666" stop-color="#ED1D24"/>
<stop offset="0.1749" stop-color="#F9A158"/>
<stop offset="0.3358" stop-color="#FBDB92"/>
<stop offset="0.4922" stop-color="#7BCBBD"/>
<stop offset="0.6263" stop-color="#2090AC"/>
<stop offset="0.7693" stop-color="#8783BE"/>
<stop offset="0.8899" stop-color="#37426E"/>
<stop offset="1" stop-color="#130E3F"/>
</linearGradient>
</defs>
</svg>
