<?xml version="1.0" encoding="utf-8"?>
<!-- Generator: Adobe Illustrator 23.0.3, SVG Export Plug-In . SVG Version: 6.00 Build 0)  -->
<svg version="1.1" id="Layer_1" xmlns="http://www.w3.org/2000/svg" xmlns:xlink="http://www.w3.org/1999/xlink" x="0px" y="0px"
	 viewBox="0 0 545.5 485.16" style="enable-background:new 0 0 545.5 485.16;" xml:space="preserve">
<style type="text/css">
	.st0{fill:url(#SVGID_1_);}
</style>
<g>
	<linearGradient id="SVGID_1_" gradientUnits="userSpaceOnUse" x1="136.724" y1="12.0705" x2="438.8388" y2="314.1853">
		<stop  offset="0" style="stop-color:#4F0093"/>
		<stop  offset="0.1268" style="stop-color:#5B0095"/>
		<stop  offset="0.3589" style="stop-color:#7C0099"/>
		<stop  offset="0.6702" style="stop-color:#B200A1"/>
		<stop  offset="1" style="stop-color:#F200AA"/>
	</linearGradient>
	<path class="st0" d="M64.43,269.5C35.3,240.36,16.6,208.75,8.88,175.55c-6.84-29.37-4.58-59.07,6.53-85.89
		C36.71,38.23,86.51,5,142.28,5c44.34,0,88.33,20.55,127.21,59.44l3.54,3.54l3.54-3.54c38.51-38.51,82.15-58.87,126.21-58.87
		c55.92,0,105.89,33.39,127.3,85.07c11.08,26.75,13.37,56.33,6.62,85.54c-7.63,33.01-26.16,64.41-55.06,93.32l-208.6,208.6
		L64.43,269.5z"/>
	<path d="M142.28,10c42.98,0,85.75,20.05,123.67,57.97l7.07,7.07l7.07-7.07c37.55-37.55,79.97-57.4,122.68-57.4h0
		c26.76,0,52.56,7.93,74.59,22.94c21.52,14.66,38.15,35.08,48.08,59.04c10.68,25.79,12.88,54.31,6.37,82.5
		c-7.41,32.09-25.49,62.67-53.73,90.91L273.03,471.02L67.97,265.96c-28.47-28.47-46.71-59.27-54.22-91.54
		c-6.6-28.34-4.43-56.99,6.28-82.84c9.89-23.87,26.44-44.19,47.88-58.77C89.85,17.89,115.57,10,142.28,10 M142.28,0
		C21.85,0-63.2,148.93,60.9,273.03l212.13,212.13l212.13-212.13C608.68,149.51,523.09,0.56,402.77,0.57
		c-41.5,0-87.14,17.73-129.74,60.33C230.02,17.89,184.03,0,142.28,0L142.28,0z"/>
</g>
</svg>
