<?xml version="1.0" encoding="utf-8"?>
<!-- Generator: Adobe Illustrator 23.0.3, SVG Export Plug-In . SVG Version: 6.00 Build 0)  -->
<svg version="1.1" id="Layer_1" xmlns="http://www.w3.org/2000/svg" xmlns:xlink="http://www.w3.org/1999/xlink" x="0px" y="0px"
	 viewBox="0 0 60.5 202.1" style="enable-background:new 0 0 60.5 202.1;" xml:space="preserve">
<style type="text/css">
	.st0{fill:#4C3794;stroke:#000000;stroke-linecap:round;stroke-linejoin:round;}
	.st1{fill:#7154D4;stroke:#000000;stroke-linecap:round;stroke-linejoin:round;}
	.st2{fill:#9380D2;stroke:#000000;stroke-linecap:round;stroke-linejoin:round;}
</style>
<g>
	<path class="st0" d="M23.2,199.7l-4.6-5l5.1,0l12.2-5.3l5.4,6.1l-8.3,6L23.2,199.7z"/>
	<path class="st1" d="M38.7,151.3l-4.3-9.5l-9.6-8.5l-12.7,23.5l11.5,37.9l12.2-5.3L38.7,151.3z"/>
	<path class="st1" d="M38.7,151.3l9.1-10l-13.3,0.5L38.7,151.3z"/>
	<path class="st0" d="M60,162l-7.2-25.8l-14.1,15.1l-2.8,38.2l5.4,6.1L60,162z"/>
	<path class="st2" d="M18.6,194.7L1.4,141.5l10.8,15.3l11.5,37.9L18.6,194.7z"/>
	<path class="st2" d="M1.5,141L1,72.6l10.6-15.3l13.3,20.9l0,55l-12.7,23.5L1.5,141z"/>
	<path class="st1" d="M24.9,133.3l0-55L37.5,68l15.6,8.6l-0.2,59l-5.2,5.6l-13.3,0.5L24.9,133.3z"/>
	<path class="st0" d="M59.9,70.8l-6.4-22.1l-0.2,27.5l-0.3,59.5L60,162L59.9,70.8z"/>
	<path class="st1" d="M53.5,48.7L28.2,0.5L37.5,68l15.6,8.6L53.5,48.7z"/>
	<path class="st2" d="M11.6,57.4L1,72.6L0.5,61.9L28.2,0.5L11.6,57.4z"/>
	<path class="st1" d="M24.8,78.3L11.6,57.4L28.2,0.5L37.5,68L24.8,78.3z"/>
</g>
</svg>
