<svg width="50" height="50" viewBox="0 0 50 50" fill="none" xmlns="http://www.w3.org/2000/svg">
<path d="M4.16663 31.1646V18.8333C4.16663 17.6375 5.09996 16.6667 6.24996 16.6667H13.7208C13.9965 16.6657 14.2691 16.6089 14.5223 16.4997C14.7754 16.3905 15.0038 16.2311 15.1937 16.0313L21.4437 8.97292C22.7562 7.60626 25 8.57501 25 10.5063V39.4937C25 41.4396 22.7291 42.4 21.425 41.0062L15.1958 33.9875C15.0054 33.7819 14.7746 33.6178 14.518 33.5052C14.2614 33.3927 13.9843 33.3342 13.7041 33.3333H6.24996C5.09996 33.3333 4.16663 32.3625 4.16663 31.1646Z" stroke="black" stroke-width="2" stroke-linecap="round" stroke-linejoin="round"/>
<path d="M33.3333 17.7083C36.1103 21.4125 36.1103 28.5875 33.3333 32.2917" stroke="black" stroke-width="2" stroke-linecap="round" stroke-linejoin="round"/>
<path d="M39.5833 10.4167C47.8916 18.35 47.9416 31.7021 39.5833 39.5834" stroke="black" stroke-width="2" stroke-linecap="round" stroke-linejoin="round"/>
</svg>
